<svg width="200" height="66" viewBox="0 0 200 66" fill="none" xmlns="http://www.w3.org/2000/svg">
<g clip-path="url(#clip0_10_531)">
<path d="M5.756 65.5L0 21.9024L1.12617 21.7773L194.223 0.5L199.979 44.1184L198.853 44.2436L5.756 65.5ZM2.48175 23.8424L7.67466 63.0802L197.518 42.1576L192.325 2.91977L2.48175 23.8424Z" fill="white"/>
<path d="M190.052 53.8389H9.82275V12.1191H190.052V53.8389ZM129.009 23.5C126.611 23.5001 125.422 24.7725 125.422 27.3174V38.999C125.422 41.5439 126.611 42.8163 129.009 42.8164H132.868C135.266 42.8164 136.455 41.5439 136.455 38.999V27.3174C136.455 24.7725 135.266 23.5 132.868 23.5H129.009ZM115.746 23.5205C113.347 23.5205 112.159 24.7932 112.159 27.3379V31.0723C112.159 33.6171 113.347 34.8896 115.746 34.8896H118.352C118.519 34.8896 118.644 34.9315 118.749 35.0566C118.853 35.1609 118.916 35.3071 118.916 35.4531V39.124C118.916 39.27 118.853 39.3953 118.749 39.5205C118.644 39.6248 118.498 39.6875 118.352 39.6875H116.559C116.392 39.6875 116.267 39.6457 116.163 39.5205C116.058 39.4162 115.996 39.27 115.996 39.124V37.0381H112.138V38.9785C112.138 41.5232 113.327 42.7959 115.725 42.7959H119.145C121.543 42.7959 122.732 41.5232 122.732 38.9785V34.9521C122.732 32.449 121.543 31.1765 119.145 31.1348H116.539C116.372 31.1348 116.246 31.0929 116.142 30.9678C116.038 30.8635 115.975 30.7173 115.975 30.5713V27.2344C115.975 27.0884 116.038 26.963 116.142 26.8379C116.246 26.7336 116.393 26.6709 116.539 26.6709H118.124C118.29 26.671 118.415 26.7128 118.519 26.8379C118.623 26.9422 118.686 27.0884 118.686 27.2344V28.7148H122.544V27.3379C122.544 24.7933 121.356 23.5206 118.958 23.5205H115.746ZM50.0103 42.5449H54.0562V35.1816H57.2681V42.5449H61.314V23.792H57.2681V31.6357H54.0562V23.792H50.0103V42.5449ZM105.088 42.5449H109.134V23.792H105.088V42.5449ZM67.8208 23.5C65.4225 23.5 64.2339 24.7725 64.2339 27.3174V42.5244H68.2798V36.2451H71.1997V42.5244H75.2456V27.3174C75.2456 24.7725 74.056 23.5 71.6577 23.5H67.8208ZM78.269 42.5244H82.3149V34.8477H84.2749C84.6293 34.8477 84.8178 35.0355 84.8179 35.4316V42.5244H88.8638V35.0986C88.8638 33.8679 88.3837 33.0743 87.4243 32.7197C88.5296 32.2817 89.0718 31.3015 89.0718 29.7578V27.5889C89.0718 25.0439 87.8832 23.7715 85.4849 23.7715H78.269V42.5244ZM91.6792 42.5244H95.7251V34.8477H97.6851C98.0395 34.8477 98.227 35.0355 98.2271 35.4316V42.5244H102.273V35.0986C102.273 33.8679 101.794 33.0744 100.834 32.7197C101.94 32.2816 102.482 31.3013 102.482 29.7578V27.5889C102.482 25.044 101.293 23.7716 98.895 23.7715H91.6792V42.5244ZM142.982 23.5C140.584 23.5001 139.395 24.7726 139.395 27.3174V42.5244H143.441V26.9629C143.441 26.8169 143.504 26.6916 143.608 26.5664C143.712 26.4621 143.858 26.3994 144.004 26.3994H145.569C145.735 26.3995 145.86 26.4415 145.964 26.5664C146.069 26.6707 146.131 26.8169 146.131 26.9629V42.5244H150.157V27.3174C150.157 24.7726 148.968 23.5001 146.57 23.5H142.982ZM131.825 26.2539C131.992 26.2539 132.117 26.2957 132.221 26.4209C132.325 26.5251 132.388 26.6706 132.388 26.8164V39.458C132.388 39.604 132.325 39.7293 132.221 39.8545C132.117 39.9587 131.971 40.0215 131.825 40.0215H130.01C129.844 40.0214 129.718 39.9796 129.614 39.8545C129.51 39.7502 129.448 39.6039 129.448 39.458V26.8164C129.448 26.6707 129.51 26.5458 129.614 26.4209C129.718 26.3167 129.864 26.254 130.01 26.2539H131.825ZM70.6157 26.2744C70.7823 26.2745 70.9071 26.3164 71.0112 26.4414C71.1155 26.5457 71.1782 26.6919 71.1782 26.8379V33.1162H68.2378V26.8379C68.2378 26.6919 68.3005 26.5666 68.4048 26.4414C68.5091 26.3371 68.6553 26.2744 68.8013 26.2744H70.6157ZM84.4634 26.5664C84.63 26.5665 84.7547 26.6084 84.8589 26.7334C84.9632 26.8377 85.0259 26.9839 85.0259 27.1299V31.4473C85.0259 31.5933 84.9632 31.7186 84.8589 31.8438C84.7547 31.9479 84.6092 32.0106 84.4634 32.0107H82.3149V26.5664H84.4634ZM97.8726 26.5664C98.0394 26.5664 98.1648 26.6082 98.269 26.7334C98.3733 26.8377 98.436 26.9839 98.436 27.1299V31.4473C98.436 31.5932 98.3733 31.7186 98.269 31.8438C98.1648 31.948 98.0185 32.0107 97.8726 32.0107H95.7251V26.5664H97.8726Z" fill="white"/>
</g>
<defs>
<clipPath id="clip0_10_531">
<rect width="200" height="65" fill="white" transform="translate(0 0.5)"/>
</clipPath>
</defs>
</svg>
