<svg width="200" height="54" viewBox="0 0 200 54" fill="none" xmlns="http://www.w3.org/2000/svg">
<g clip-path="url(#clip0_10_545)">
<path d="M199.878 54H0V38.2979H199.878V54ZM141.992 41.8311C141.113 41.8311 140.308 42.0273 139.575 42.4443C138.843 42.8614 138.257 43.4261 137.842 44.1621C137.427 44.898 137.207 45.732 137.207 46.6396C137.207 47.5474 137.427 48.3821 137.842 49.1182C138.257 49.854 138.843 50.4179 139.575 50.835C140.308 51.252 141.113 51.4482 141.992 51.4482C142.31 51.4482 142.651 51.4242 143.018 51.3506L144.141 52.8965H146.924L145.02 50.4424C145.557 50.0008 145.996 49.4612 146.313 48.7988C146.631 48.1364 146.777 47.4247 146.777 46.6396C146.777 45.7075 146.558 44.898 146.143 44.1621C145.728 43.4261 145.142 42.8614 144.409 42.4443C143.677 42.0273 142.871 41.8311 141.992 41.8311ZM9.79004 41.8555C8.91117 41.8555 8.10545 42.0517 7.37305 42.4688C6.64062 42.8858 6.05469 43.4505 5.63965 44.1865C5.2247 44.9225 5.00492 45.7564 5.00488 46.6641C5.00488 47.5718 5.22461 48.4065 5.63965 49.1426C6.05466 49.8785 6.64076 50.4423 7.37305 50.8594C8.10547 51.2765 8.91113 51.4727 9.79004 51.4727C10.6689 51.4727 11.4746 51.2765 12.207 50.8594C12.9393 50.4423 13.5254 49.8785 13.9404 49.1426C14.3555 48.4065 14.5752 47.5964 14.5752 46.6641C14.5752 45.7319 14.3554 44.9225 13.9404 44.1865C13.5254 43.4505 12.9395 42.8858 12.207 42.4688C11.4746 42.0517 10.6689 41.8555 9.79004 41.8555ZM33.3984 41.8555C32.5196 41.8555 31.7138 42.0517 30.9814 42.4688C30.249 42.8858 29.6631 43.4505 29.248 44.1865C28.8331 44.9225 28.6133 45.7319 28.6133 46.6641C28.6133 47.5964 28.833 48.4065 29.248 49.1426C29.6631 49.8785 30.2492 50.4423 30.9814 50.8594C31.7139 51.2765 32.5195 51.4727 33.3984 51.4727C34.204 51.4727 34.9121 51.3016 35.5469 50.9336C36.206 50.5656 36.7188 50.0993 37.1094 49.5596C37.5 49.0198 37.7686 48.4549 37.8662 47.8906V46.1494H32.7881V47.8906H35.4248C35.3027 48.3322 35.083 48.7008 34.7412 48.9707C34.3994 49.2405 33.9599 49.3633 33.4229 49.3633C32.666 49.3633 32.0557 49.1176 31.6162 48.627C31.1524 48.1363 30.9326 47.4737 30.9326 46.6641C30.9327 45.8545 31.1768 45.1918 31.6162 44.7012C32.08 44.2106 32.6661 43.9658 33.4229 43.9658C33.8135 43.9658 34.1553 44.0392 34.4482 44.2109C34.7412 44.3581 34.9609 44.6281 35.1562 44.9961H37.8662C37.5488 44.0147 36.9873 43.2292 36.1816 42.6895H36.1572C35.3516 42.1252 34.4238 41.8555 33.3984 41.8555ZM77.9785 41.8555C77.0996 41.8555 76.2939 42.0517 75.5615 42.4688C74.8291 42.8858 74.2432 43.4505 73.8281 44.1865C73.4132 44.9225 73.1934 45.7319 73.1934 46.6641C73.1934 47.5964 73.4131 48.4065 73.8281 49.1426C74.2431 49.8785 74.8292 50.4423 75.5615 50.8594C76.2939 51.2765 77.0996 51.4727 77.9785 51.4727C78.7841 51.4727 79.4922 51.3016 80.127 50.9336C80.7617 50.5656 81.2988 50.0993 81.6895 49.5596C82.0801 49.0198 82.3486 48.4549 82.4463 47.8906V46.1494H77.3682V47.8906H80.0049C79.8828 48.3322 79.6631 48.7008 79.3213 48.9707C78.9795 49.2405 78.54 49.3633 78.0029 49.3633C77.2461 49.3633 76.6357 49.1176 76.1963 48.627C75.7569 48.1363 75.5371 47.4737 75.5371 46.6641C75.5372 45.8545 75.7569 45.1918 76.1963 44.7012C76.6601 44.2106 77.2462 43.9658 78.0029 43.9658C78.3936 43.9658 78.7354 44.0392 79.0283 44.2109C79.3213 44.3581 79.541 44.6281 79.7363 44.9961H82.4463C82.1289 44.0147 81.5674 43.2292 80.7617 42.6895H80.7373C79.9317 42.1252 79.0038 41.8555 77.9785 41.8555ZM101.807 47.5723C101.807 48.3817 101.978 49.0929 102.319 49.6816C102.686 50.2705 103.149 50.7124 103.735 51.0068C104.321 51.3012 104.98 51.4482 105.664 51.4482C106.348 51.4482 106.982 51.3012 107.593 51.0068C108.203 50.7124 108.691 50.2705 109.058 49.6816C109.424 49.0929 109.619 48.4062 109.619 47.5723V41.9785H107.349V47.5723C107.349 48.1364 107.226 48.5777 106.934 48.8721C106.641 49.191 106.25 49.3389 105.713 49.3389C105.176 49.3389 104.761 49.1665 104.492 48.8721C104.224 48.5532 104.077 48.1363 104.077 47.5723V41.9785H101.807V47.5723ZM148.218 47.5723C148.218 48.3817 148.413 49.0929 148.755 49.6816C149.121 50.2705 149.585 50.7124 150.171 51.0068C150.757 51.3012 151.416 51.4482 152.1 51.4482C152.783 51.4482 153.418 51.3012 154.028 51.0068C154.639 50.7124 155.127 50.2705 155.493 49.6816C155.859 49.0929 156.055 48.4062 156.055 47.5723V41.9785H153.784V47.5723C153.784 48.1364 153.662 48.5777 153.369 48.8721C153.076 49.191 152.686 49.3389 152.148 49.3389C151.611 49.3389 151.196 49.1665 150.928 48.8721C150.659 48.5532 150.513 48.1363 150.513 47.5723V41.9785H148.218V47.5723ZM16.04 51.3506H18.3105V47.6943H18.5791L20.6787 51.3506V51.375H23.3398L21.0449 47.5479C21.8018 47.327 22.3389 46.9586 22.6562 46.4434C22.9736 45.9282 23.1445 45.3884 23.1445 44.8486C23.1445 44.3335 23.0224 43.8674 22.7539 43.4258C22.4854 42.9842 22.0947 42.641 21.582 42.3711C21.0693 42.1012 20.459 41.9785 19.7266 41.9785H16.04V51.3506ZM63.4033 51.375H68.5059V49.6328H65.6738V42.0029H63.4033V51.375ZM83.9111 51.375H89.5508V49.6328H86.1816V47.4492H89.1602V45.707H86.1816V43.7197H89.5508V41.9785H83.9111V51.375ZM126.147 51.375H131.787V49.6328H128.418V47.4492H131.396V45.707H128.418V43.7197H131.787V41.9785H126.147V51.375ZM167.48 51.375H172.583V49.6328H169.751V42.0029H167.48V51.375ZM24.9023 51.3506H27.1729V41.9785H24.9023V51.3506ZM39.3311 51.3506H41.6016V41.9785H39.3311V51.3506ZM43.5791 51.3506H45.8496V45.4375L49.6582 51.3506H51.9287V41.9541H49.6582V47.8662L45.8496 41.9541H43.5791V51.3506ZM53.0518 51.3506H55.4688L55.9814 49.7803H59.3262L59.8389 51.3506H62.2803L59.0576 41.9541H56.2988L53.0518 51.3506ZM91.5039 51.3506H93.7744V45.4375L97.583 51.3506H99.8535V41.9541H97.583V47.8662L93.7744 41.9541H91.5039V51.3506ZM111.548 51.3506H113.818V41.9785H111.548V51.3506ZM115.82 51.3506H118.091V45.4375L121.899 51.3506H124.17V41.9541H121.899V47.8662L118.091 41.9541H115.82V51.3506ZM157.129 51.3506H159.546L160.059 49.7803H163.403L163.916 51.3506H166.357L163.135 41.9541H160.376L157.129 51.3506ZM173.853 51.3506H176.123V41.9785H173.853V51.3506ZM177.49 43.7197H180.029V51.3506H182.3V43.7197H184.839V41.9785H177.49V43.7197ZM185.4 41.9785L188.623 48.333V51.3506H190.894V48.333L194.116 41.9785H191.577L189.795 46.1982L187.988 41.9785H185.4ZM9.81445 43.9414C10.5468 43.9414 11.1572 44.1862 11.5967 44.6768C12.0361 45.1674 12.2558 45.8301 12.2559 46.6396C12.2559 47.4493 12.0361 48.1119 11.5967 48.6025C11.1572 49.0932 10.5713 49.3389 9.81445 49.3389C9.05762 49.3389 8.44726 49.0932 8.00781 48.6025C7.54395 48.1119 7.32422 47.4493 7.32422 46.6396C7.32425 45.8301 7.56838 45.1674 8.00781 44.6768C8.47166 44.1862 9.0821 43.9414 9.81445 43.9414ZM141.992 43.9414C142.725 43.9414 143.335 44.1862 143.774 44.6768C144.214 45.1674 144.434 45.8301 144.434 46.6396C144.434 47.4493 144.214 48.1119 143.774 48.6025C143.335 49.0932 142.749 49.3389 141.992 49.3389C141.235 49.3389 140.625 49.0932 140.186 48.6025C139.746 48.1119 139.526 47.4493 139.526 46.6396C139.526 45.8301 139.746 45.1674 140.186 44.6768C140.649 44.1862 141.26 43.9414 141.992 43.9414ZM58.7646 48.0381H56.5674L57.666 44.7012L58.7646 48.0381ZM162.842 48.0381H160.645L161.743 44.7012L162.842 48.0381ZM19.7021 43.7451C20.001 43.7451 20.2438 43.8199 20.4307 43.9863L20.585 44.1406C20.7507 44.3284 20.8252 44.5727 20.8252 44.873C20.8252 45.2164 20.7274 45.4864 20.5322 45.6826C20.3369 45.8789 20.0684 45.9775 19.7266 45.9775H18.3105L18.2861 46.002V43.7451H19.7021Z" fill="white"/>
<path d="M11.1816 0L18.6768 23.5039L26.1719 0H36.8408V33.7837H28.7109V25.9082L29.4922 9.76465L21.3623 33.8083H16.0156L7.86133 9.71558L8.64258 25.8837V33.7592H0.537109V0H11.1816Z" fill="white"/>
<path d="M50.6348 33.7837H42.5537V0H50.6348V33.7837Z" fill="white"/>
<path d="M84.3262 33.7837H76.2695L64.3555 12.7578V33.7837H56.25V0H64.3555L76.2451 21.0259V0H84.3262V33.7837Z" fill="white"/>
<path d="M98.0957 33.7837H90.0146V0H98.0957V33.7837Z" fill="white"/>
<path d="M114.355 0L121.851 23.5039L129.321 0H139.99V33.7837H131.86V25.9082L132.642 9.76465L124.512 33.8083H119.165L111.011 9.74012L111.792 25.9082V33.7837H103.687V0H114.331H114.355Z" fill="white"/>
<path d="M164.673 27.4784H153.564L151.636 33.7837H142.969L155.298 0H162.915L175.342 33.7837H166.65L164.697 27.4784H164.673ZM155.518 21.1731H162.744L159.131 9.44571L155.518 21.1731Z" fill="white"/>
<path d="M185.889 27.503H200V33.7592H177.783V0H185.889V27.503Z" fill="white"/>
</g>
<defs>
<clipPath id="clip0_10_545">
<rect width="200" height="54" fill="white"/>
</clipPath>
</defs>
</svg>
