<svg width="200" height="58" viewBox="0 0 200 58" fill="none" xmlns="http://www.w3.org/2000/svg">
<g clip-path="url(#clip0_10_579)">
<path d="M14.1924 36.328V18.9307H19.4626C20.9566 18.9307 22.3053 19.2681 23.488 19.964C24.6706 20.6599 25.6044 21.6299 26.2683 22.8951C26.9323 24.1604 27.2643 25.6155 27.2643 27.2181V28.0195C27.2643 29.6432 26.9323 31.0772 26.2891 32.3213C25.6251 33.5866 24.7121 34.5566 23.5295 35.2525C22.3468 35.9484 20.9981 36.2858 19.5041 36.3069H14.2131L14.1924 36.328ZM17.7197 21.8408V33.439H19.4211C20.7906 33.439 21.8488 32.9751 22.575 32.0683C23.3012 31.1615 23.6747 29.833 23.6954 28.146V27.2181C23.6954 25.4468 23.3427 24.1182 22.6165 23.1904C21.8903 22.2836 20.8528 21.8197 19.4626 21.8197H17.7197V21.8408Z" fill="white"/>
<path d="M40.1287 28.7996H33.3645V33.46H41.3114V36.349H29.8372V18.9517H41.2906V21.8618H33.3645V25.9949H40.1287V28.7996Z" fill="white"/>
<path d="M52.2461 31.7734C52.2461 31.0986 52.0178 30.5714 51.5406 30.2129C51.0634 29.8544 50.2334 29.4748 49.0092 29.0742C47.785 28.6735 46.8098 28.2728 46.1044 27.8933C44.154 26.8178 43.1995 25.3838 43.1995 23.5914C43.1995 22.6424 43.4692 21.82 43.988 21.0819C44.5067 20.3439 45.2537 19.7745 46.2289 19.3528C47.2041 18.931 48.3038 18.7412 49.5072 18.7412C50.7107 18.7412 51.8104 18.9732 52.7648 19.416C53.7193 19.8589 54.4662 20.4915 54.985 21.3139C55.5037 22.1363 55.7734 23.0642 55.7734 24.1186H52.2461C52.2461 23.3172 51.9971 22.7057 51.4991 22.2629C51.0011 21.82 50.3164 21.6091 49.4242 21.6091C48.532 21.6091 47.8888 21.7989 47.4116 22.1574C46.9343 22.537 46.6853 23.022 46.6853 23.6125C46.6853 24.1818 46.9551 24.6458 47.5153 25.0253C48.0755 25.4049 48.9055 25.7634 49.9844 26.1008C51.9971 26.7124 53.4495 27.4715 54.3625 28.3783C55.2754 29.2851 55.7319 30.4238 55.7319 31.7734C55.7319 33.2706 55.1717 34.4515 54.0512 35.3161C52.9308 36.1807 51.4161 36.6025 49.528 36.6025C48.2208 36.6025 47.0173 36.3494 45.9384 35.8644C44.8594 35.3794 44.0295 34.7046 43.4692 33.8611C42.909 33.0176 42.6185 32.0265 42.6185 30.9088H46.1459C46.1459 32.8278 47.2663 33.7978 49.528 33.7978C50.3579 33.7978 51.0219 33.6291 51.4991 33.2706C51.9763 32.9332 52.2046 32.4482 52.2046 31.8156L52.2461 31.7734Z" fill="white"/>
<path d="M61.9152 36.328H58.3878V18.9307H61.9152V36.328Z" fill="white"/>
<path d="M78.7219 34.135C78.0787 34.9152 77.1865 35.5057 76.0245 35.9275C74.8626 36.3492 73.5761 36.5601 72.1652 36.5601C70.692 36.5601 69.3848 36.2227 68.2644 35.569C67.144 34.9152 66.2932 33.9663 65.6708 32.701C65.069 31.4569 64.7578 29.9807 64.7371 28.2937V27.1128C64.7371 25.3836 65.0275 23.8653 65.6085 22.6C66.1895 21.3348 67.0195 20.3647 68.0984 19.6899C69.1774 19.0151 70.4638 18.6777 71.9162 18.6777C73.9496 18.6777 75.5266 19.1628 76.6678 20.1539C77.809 21.145 78.4937 22.5579 78.7012 24.4558H75.2776C75.1116 23.4646 74.7796 22.7266 74.2401 22.2626C73.7006 21.7987 72.9744 21.5667 72.02 21.5667C70.8165 21.5667 69.9036 22.0307 69.2811 22.9374C68.6586 23.8442 68.3266 25.2149 68.3266 27.0285V28.1461C68.3266 29.9596 68.6586 31.3514 69.3433 32.2793C70.0281 33.2071 71.024 33.6711 72.3312 33.6711C73.6384 33.6711 74.5929 33.3758 75.1531 32.8065V29.812H71.937V27.1761H78.6597V34.1139L78.7219 34.135Z" fill="white"/>
<path d="M95.4872 36.328H91.9598L85.0919 24.8985V36.328H81.5646V18.9307H85.0919L91.9598 30.4024V18.9307H95.4664V36.328H95.4872Z" fill="white"/>
<path d="M113.435 31.7734C113.435 31.0986 113.207 30.5714 112.73 30.2129C112.252 29.8544 111.422 29.4748 110.198 29.0742C108.974 28.6735 107.999 28.2728 107.293 27.8933C105.343 26.8178 104.388 25.3838 104.388 23.5914C104.388 22.6424 104.658 21.82 105.177 21.0819C105.696 20.3439 106.443 19.7745 107.418 19.3528C108.393 18.931 109.493 18.7412 110.696 18.7412C111.9 18.7412 112.999 18.9732 113.954 19.416C114.908 19.8589 115.655 20.4915 116.174 21.3139C116.693 22.1363 116.962 23.0642 116.962 24.1186H113.435C113.435 23.3172 113.186 22.7057 112.688 22.2629C112.19 21.82 111.505 21.6091 110.613 21.6091C109.721 21.6091 109.078 21.7989 108.601 22.1574C108.123 22.537 107.874 23.022 107.874 23.6125C107.874 24.1818 108.144 24.6458 108.725 25.0253C109.285 25.4049 110.115 25.7634 111.194 26.1008C113.207 26.7124 114.659 27.4715 115.572 28.3783C116.485 29.2851 116.942 30.4238 116.942 31.7734C116.942 33.2706 116.381 34.4515 115.261 35.3161C114.141 36.1807 112.626 36.6025 110.738 36.6025C109.43 36.6025 108.227 36.3494 107.148 35.8644C106.069 35.3794 105.239 34.7046 104.679 33.8611C104.119 33.0176 103.828 32.0265 103.828 30.9088H107.376C107.376 32.8278 108.497 33.7978 110.758 33.7978C111.588 33.7978 112.252 33.6291 112.73 33.2706C113.207 32.9332 113.435 32.4482 113.435 31.8156V31.7734Z" fill="white"/>
<path d="M132.234 21.8408H126.984V36.328H123.457V21.8408H118.29V18.9307H132.234V21.8408Z" fill="white"/>
<path d="M147.194 18.9517V30.4023C147.194 32.3002 146.613 33.8185 145.43 34.915C144.268 36.0116 142.65 36.581 140.637 36.581C138.624 36.581 137.047 36.0538 135.885 34.9783C134.724 33.9028 134.122 32.4267 134.08 30.5499V18.9727H137.608V30.4444C137.608 31.5832 137.877 32.4056 138.417 32.9328C138.956 33.46 139.703 33.713 140.637 33.713C142.608 33.713 143.625 32.6587 143.646 30.5288V18.9517H147.194Z" fill="white"/>
<path d="M150.078 36.328V18.9307H155.348C156.842 18.9307 158.191 19.2681 159.394 19.964C160.577 20.6599 161.511 21.6299 162.175 22.8951C162.839 24.1604 163.171 25.6155 163.171 27.2181V28.0195C163.171 29.6432 162.839 31.0772 162.195 32.3213C161.531 33.5866 160.618 34.5566 159.436 35.2525C158.253 35.9484 156.904 36.2858 155.41 36.3069H150.119L150.078 36.328ZM153.605 21.8408V33.439H155.307C156.676 33.439 157.734 32.9751 158.46 32.0683C159.187 31.1615 159.56 29.833 159.581 28.146V27.2181C159.581 25.4468 159.228 24.1182 158.502 23.1904C157.776 22.2836 156.718 21.8197 155.348 21.8197H153.605V21.8408Z" fill="white"/>
<path d="M169.458 36.328H165.93V18.9307H169.458V36.328Z" fill="white"/>
<path d="M186.783 28.0405C186.783 29.7486 186.492 31.2458 185.891 32.5322C185.289 33.8185 184.438 34.8096 183.339 35.5266C182.239 36.2436 180.952 36.581 179.521 36.581C178.089 36.581 176.844 36.2436 175.724 35.5477C174.603 34.8518 173.752 33.8607 173.13 32.5743C172.528 31.288 172.217 29.8118 172.196 28.1459V27.2813C172.196 25.5732 172.508 24.0549 173.109 22.7686C173.711 21.4611 174.582 20.47 175.682 19.7741C176.782 19.0782 178.048 18.7197 179.479 18.7197C180.911 18.7197 182.177 19.0571 183.276 19.7741C184.376 20.47 185.247 21.4611 185.849 22.7686C186.451 24.076 186.762 25.5732 186.762 27.2813V28.0616L186.783 28.0405ZM183.214 27.2391C183.214 25.4256 182.903 24.0338 182.26 23.0849C181.616 22.1359 180.703 21.672 179.5 21.672C178.297 21.672 177.404 22.1359 176.761 23.0638C176.118 23.9916 175.786 25.3623 175.786 27.1759V28.0194C175.786 29.7908 176.118 31.1825 176.74 32.1526C177.384 33.1226 178.297 33.6287 179.521 33.6287C180.745 33.6287 181.616 33.1648 182.239 32.2158C182.882 31.2669 183.193 29.8962 183.193 28.0827V27.2391H183.214Z" fill="white"/>
<path d="M34.6716 46.0072C35.2941 46.3657 35.7921 46.8718 36.1655 47.5044C36.539 48.137 36.705 48.854 36.705 49.6553C36.705 50.4567 36.5183 51.1737 36.1448 51.8274C35.7713 52.46 35.2733 52.9661 34.6509 53.3246C34.0284 53.6831 33.3229 53.8518 32.576 53.8518C31.829 53.8518 31.1235 53.662 30.5011 53.3246C29.8786 52.9661 29.3599 52.46 29.0071 51.8274C28.6336 51.1947 28.4469 50.4567 28.4469 49.6553C28.4469 48.854 28.6336 48.137 29.0071 47.5044C29.3806 46.8718 29.8786 46.3657 30.5011 46.0072C31.1235 45.6487 31.829 45.48 32.576 45.48C33.3229 45.48 34.0284 45.6698 34.6509 46.0072H34.6716ZM31.0405 47.9472C30.6463 48.369 30.4596 48.9384 30.4596 49.6553C30.4596 50.3723 30.6463 50.9417 31.0405 51.3634C31.4348 51.7852 31.9535 51.9961 32.5967 51.9961C33.2399 51.9961 33.7587 51.7852 34.1321 51.3634C34.5264 50.9417 34.7131 50.3723 34.7131 49.6553C34.7131 48.9384 34.5264 48.369 34.1321 47.9472C33.7379 47.5255 33.2399 47.3146 32.5967 47.3146C31.9535 47.3146 31.4348 47.5255 31.0405 47.9472Z" fill="white"/>
<path d="M41.996 53.7886L40.1909 50.6043H39.9626V53.7886H37.9915V45.5854H41.1661C41.7885 45.5854 42.328 45.6909 42.7845 45.9439C43.241 46.1759 43.5729 46.4922 43.8012 46.8718C44.0294 47.2514 44.1332 47.6731 44.1332 48.116C44.1332 48.601 43.9879 49.0649 43.6974 49.5078C43.407 49.9506 42.9505 50.288 42.3073 50.4567L44.2784 53.7886H41.9753H41.996ZM39.9419 49.086H41.1661C41.4565 49.086 41.7055 49.0017 41.8715 48.8119C42.0375 48.6221 42.1205 48.3901 42.1205 48.0949C42.1205 47.7997 42.0375 47.5677 41.8508 47.3779C41.6848 47.1881 41.4358 47.1038 41.1453 47.1038H39.9211V49.086H39.9419Z" fill="white"/>
<path d="M47.619 45.5854V53.7886H45.6478V45.5854H47.619Z" fill="white"/>
<path d="M55.4 46.1971C56.1054 46.6821 56.5827 47.3569 56.8524 48.2004H54.5078C54.3418 47.8841 54.1343 47.6521 53.906 47.5045C53.657 47.3569 53.3666 47.2936 53.0138 47.2936C52.3706 47.2936 51.8519 47.5045 51.4576 47.9262C51.0634 48.348 50.8767 48.9174 50.8767 49.6343C50.8767 50.3513 51.0634 50.9207 51.4576 51.3424C51.8519 51.7642 52.3706 51.9751 53.0138 51.9751C53.491 51.9751 53.8645 51.8486 54.155 51.6166C54.4455 51.3846 54.653 51.0683 54.7567 50.6676H52.4743V49.1493H56.8524V50.6676C56.7694 51.1527 56.5412 51.6377 56.1884 52.1227C55.8357 52.6077 55.4 53.0084 54.8397 53.3247C54.2795 53.641 53.6778 53.8097 52.9931 53.8097C52.2254 53.8097 51.5406 53.6199 50.9182 53.2825C50.2957 52.924 49.777 52.4179 49.4242 51.7853C49.0508 51.1527 48.864 50.4357 48.864 49.6343C48.864 48.833 49.0508 48.116 49.4242 47.4834C49.7977 46.8508 50.2957 46.3447 50.9182 45.9862C51.5406 45.6277 52.2461 45.459 52.9931 45.459C53.8853 45.459 54.6945 45.6909 55.3792 46.176L55.4 46.1971Z" fill="white"/>
<path d="M60.0892 45.5854V53.7886H58.118V45.5854H60.0892Z" fill="white"/>
<path d="M69.0113 53.7886H67.0402L63.7618 48.6222V53.7886H61.7906V45.5645H63.7618L67.0402 50.7309V45.5645H69.0113V53.7886Z" fill="white"/>
<path d="M75.4227 52.4179H72.5386L72.0821 53.7886H69.9865L72.7876 45.5645H75.1737L77.9748 53.7886H75.8792L75.4227 52.4179ZM74.9247 50.8996L73.9703 47.9895L73.0158 50.8996H74.9247Z" fill="white"/>
<path d="M80.9005 52.2702H83.3489V53.7886H78.9293V45.5854H80.9005V52.2702Z" fill="white"/>
<path d="M93.9308 46.1971C94.6363 46.6821 95.1135 47.3569 95.3833 48.2004H93.0386C92.8726 47.8841 92.6652 47.6521 92.4369 47.5045C92.1879 47.3569 91.8974 47.2936 91.5447 47.2936C90.9015 47.2936 90.3828 47.5045 89.9885 47.9262C89.5943 48.348 89.4076 48.9174 89.4076 49.6343C89.4076 50.3513 89.5943 50.9207 89.9885 51.3424C90.3828 51.7642 90.9015 51.9751 91.5447 51.9751C92.0219 51.9751 92.3954 51.8486 92.6859 51.6166C92.9764 51.3846 93.1839 51.0683 93.2876 50.6676H91.0052V49.1493H95.3833V50.6676C95.3003 51.1527 95.072 51.6377 94.7193 52.1227C94.3666 52.6077 93.9308 53.0084 93.3706 53.3247C92.8104 53.641 92.2087 53.8097 91.524 53.8097C90.7562 53.8097 90.0715 53.6199 89.4491 53.2825C88.8266 52.924 88.3079 52.4179 87.9551 51.7853C87.5816 51.1527 87.3949 50.4357 87.3949 49.6343C87.3949 48.833 87.5816 48.116 87.9551 47.4834C88.3286 46.8508 88.8266 46.3447 89.4491 45.9862C90.0715 45.6277 90.777 45.459 91.524 45.459C92.4162 45.459 93.2254 45.6909 93.9101 46.176L93.9308 46.1971Z" fill="white"/>
<path d="M98.6202 47.0828V48.8541H101.193V50.3724H98.6202V52.2703H101.546V53.7886H96.6698V45.5645H101.546V47.0828H98.6202Z" fill="white"/>
<path d="M110.426 53.7886H108.455L105.177 48.6222V53.7886H103.206V45.5645H105.177L108.455 50.7309V45.5645H110.426V53.7886Z" fill="white"/>
<path d="M114.078 45.5854V50.4778C114.078 50.9628 114.203 51.3424 114.431 51.6165C114.659 51.8696 115.012 52.0172 115.468 52.0172C115.925 52.0172 116.278 51.8907 116.527 51.6165C116.776 51.3424 116.9 50.9839 116.9 50.4778V45.5854H118.871V50.4778C118.871 51.1948 118.705 51.8274 118.394 52.3335C118.062 52.8396 117.647 53.2192 117.128 53.4933C116.61 53.7464 116.049 53.8729 115.448 53.8729C114.846 53.8729 114.306 53.7464 113.788 53.4933C113.269 53.2403 112.875 52.8607 112.564 52.3335C112.252 51.8274 112.107 51.2159 112.107 50.4778V45.5854H114.078Z" fill="white"/>
<path d="M122.523 45.5854V53.7886H120.552V45.5854H122.523Z" fill="white"/>
<path d="M131.445 53.7886H129.474L126.196 48.6222V53.7886H124.224V45.5645H126.196L129.474 50.7309V45.5645H131.445V53.7886Z" fill="white"/>
<path d="M135.139 47.0828V48.8541H137.711V50.3724H135.139V52.2703H138.064V53.7886H133.188V45.5645H138.064V47.0828H135.139Z" fill="white"/>
<path d="M148.729 55.1384L147.754 53.7888C147.443 53.8521 147.152 53.8943 146.862 53.8943C146.094 53.8943 145.409 53.7045 144.787 53.3671C144.164 53.0086 143.666 52.5025 143.293 51.8699C142.919 51.2372 142.733 50.4992 142.733 49.6978C142.733 48.8965 142.919 48.1795 143.293 47.5469C143.666 46.9142 144.164 46.4081 144.787 46.0497C145.409 45.6912 146.115 45.5225 146.862 45.5225C147.609 45.5225 148.314 45.7123 148.937 46.0497C149.559 46.4081 150.057 46.9142 150.431 47.5469C150.804 48.1795 150.97 48.8965 150.97 49.6978C150.97 50.3937 150.825 51.0053 150.555 51.5746C150.285 52.144 149.912 52.629 149.435 53.0086L151.074 55.1595H148.688L148.729 55.1384ZM145.306 51.3848C145.7 51.8066 146.219 52.0175 146.862 52.0175C147.505 52.0175 148.024 51.8066 148.418 51.3848C148.812 50.9631 148.999 50.3937 148.999 49.6767C148.999 48.9598 148.812 48.3904 148.418 47.9686C148.024 47.5469 147.526 47.336 146.862 47.336C146.198 47.336 145.7 47.5469 145.306 47.9686C144.911 48.3904 144.725 48.9598 144.725 49.6767C144.725 50.3937 144.911 50.9631 145.306 51.3848Z" fill="white"/>
<path d="M154.248 45.5854V50.4778C154.248 50.9628 154.373 51.3424 154.601 51.6165C154.829 51.8696 155.182 52.0172 155.639 52.0172C156.095 52.0172 156.448 51.8907 156.697 51.6165C156.946 51.3424 157.07 50.9839 157.07 50.4778V45.5854H159.041V50.4778C159.041 51.1948 158.875 51.8274 158.564 52.3335C158.232 52.8396 157.817 53.2192 157.298 53.4933C156.78 53.7464 156.22 53.8729 155.618 53.8729C155.016 53.8729 154.477 53.7464 153.958 53.4933C153.439 53.2403 153.045 52.8607 152.734 52.3335C152.422 51.8274 152.277 51.2159 152.277 50.4778V45.5854H154.248Z" fill="white"/>
<path d="M165.391 52.4179H162.486L162.029 53.7886H159.934L162.735 45.5645H165.121L167.901 53.7886H165.806L165.349 52.4179H165.391ZM164.893 50.8996L163.938 47.9895L162.984 50.8996H164.893Z" fill="white"/>
<path d="M170.868 52.2702H173.317V53.7886H168.897V45.5854H170.868V52.2702Z" fill="white"/>
<path d="M176.367 45.5854V53.7886H174.396V45.5854H176.367Z" fill="white"/>
<path d="M183.899 45.5854V47.1038H181.699V53.7886H179.728V47.1038H177.529V45.5854H183.899Z" fill="white"/>
<path d="M191.929 45.5854L189.148 51.1315V53.7675H187.177V51.1315L184.397 45.5854H186.617L188.173 49.2758L189.708 45.5854H191.929Z" fill="white"/>
<path d="M200 0.5H186.119V14.6077H200V0.5Z" fill="white"/>
<path d="M183.38 4.40137H177.176V10.7066H183.38V4.40137Z" fill="white"/>
<path d="M195.601 17.9395H190.497V23.127H195.601V17.9395Z" fill="white"/>
<path d="M-3.8147e-06 57.479H13.8811L13.8811 43.3713H-3.8147e-06L-3.8147e-06 57.479Z" fill="white"/>
<path d="M16.62 53.5781H22.824V47.2729H16.62V53.5781Z" fill="white"/>
<path d="M4.39879 40.0396H9.50305V34.852H4.39879L4.39879 40.0396Z" fill="white"/>
</g>
<defs>
<clipPath id="clip0_10_579">
<rect width="200" height="57" fill="white" transform="translate(0 0.5)"/>
</clipPath>
</defs>
</svg>
