<svg width="200" height="46" viewBox="0 0 200 46" fill="none" xmlns="http://www.w3.org/2000/svg">
<g clip-path="url(#clip0_10_499)">
<path d="M57.071 25.5238H53.7582V9.2373H57.071V25.5238Z" fill="white"/>
<path d="M73.2571 25.5238H69.9444L63.4867 14.8146V25.5238H60.174V9.2373H63.4867L69.9654 19.989V9.2373H73.2781V25.5238H73.2571Z" fill="white"/>
<path d="M76.1505 25.5238V9.2373H81.0986C82.5243 9.2373 83.7823 9.5554 84.8936 10.2128C86.0048 10.849 86.8854 11.7821 87.5144 12.9696C88.1434 14.1572 88.4579 15.5144 88.4579 17.0201V17.7623C88.4579 19.2679 88.1434 20.6251 87.5354 21.8127C86.9273 23.0003 86.0467 23.9121 84.9355 24.5483C83.8033 25.2057 82.5453 25.5238 81.1406 25.5238H76.1505ZM79.4632 11.9517V22.8306H81.0567C82.3566 22.8306 83.342 22.4065 84.0339 21.537C84.7258 20.6888 85.0823 19.4588 85.0823 17.8471V16.9776C85.0823 15.3235 84.7468 14.0724 84.0549 13.2029C83.384 12.3546 82.3776 11.9305 81.0777 11.9305H79.4423L79.4632 11.9517Z" fill="white"/>
<path d="M103.072 9.21603V19.9465C103.072 21.7278 102.526 23.1274 101.415 24.1665C100.304 25.2057 98.7944 25.7146 96.8864 25.7146C94.9785 25.7146 93.5108 25.2057 92.3996 24.209C91.2884 23.1911 90.7223 21.8126 90.7013 20.0525V9.19482H94.014V19.9465C94.014 21.0068 94.2656 21.7914 94.7688 22.2792C95.272 22.7669 95.9639 23.0214 96.8655 23.0214C98.7315 23.0214 99.675 22.0247 99.7169 20.0525V9.21603H103.051H103.072Z" fill="white"/>
<path d="M114.142 21.24C114.142 20.6038 113.911 20.1161 113.471 19.7768C113.031 19.4375 112.234 19.077 111.081 18.6952C109.928 18.3135 109.026 17.953 108.355 17.5925C106.531 16.5958 105.609 15.2386 105.609 13.5421C105.609 12.6726 105.86 11.8668 106.342 11.1882C106.825 10.4884 107.537 9.95819 108.46 9.57648C109.382 9.19476 110.41 9.00391 111.542 9.00391C112.674 9.00391 113.723 9.21597 114.624 9.6401C115.526 10.0642 116.218 10.658 116.721 11.4214C117.224 12.1849 117.476 13.0543 117.476 14.0298H114.163C114.163 13.2876 113.932 12.715 113.471 12.2909C113.01 11.8668 112.36 11.6759 111.521 11.6759C110.682 11.6759 110.074 11.8456 109.634 12.2061C109.194 12.5454 108.963 13.0119 108.963 13.5845C108.963 14.1147 109.236 14.56 109.76 14.9205C110.284 15.281 111.06 15.6203 112.087 15.9384C113.974 16.511 115.358 17.232 116.218 18.0802C117.077 18.9285 117.518 19.9888 117.518 21.2612C117.518 22.6608 116.993 23.7848 115.945 24.5694C114.897 25.3753 113.471 25.7782 111.689 25.7782C110.452 25.7782 109.32 25.5449 108.292 25.0996C107.265 24.633 106.489 24.018 105.965 23.2122C105.441 22.4064 105.168 21.4945 105.168 20.4342H108.502C108.502 22.2367 109.571 23.1274 111.689 23.1274C112.486 23.1274 113.094 22.9577 113.534 22.6396C113.974 22.3215 114.205 21.855 114.205 21.2824L114.142 21.24Z" fill="white"/>
<path d="M131.838 11.9517H126.911V25.5238H123.598V11.9517H118.734V9.2373H131.859V11.9517H131.838Z" fill="white"/>
<path d="M139.7 19.5433H137.058V25.5023H133.746V9.21582H139.721C141.629 9.21582 143.097 9.63995 144.124 10.5094C145.151 11.3789 145.676 12.5876 145.676 14.1357C145.676 15.2384 145.445 16.1715 144.963 16.9137C144.481 17.656 143.768 18.2498 142.803 18.6951L146.284 25.3539V25.5023H142.719L139.7 19.5433ZM137.058 16.8289H139.742C140.581 16.8289 141.231 16.6169 141.671 16.1927C142.132 15.7686 142.363 15.1748 142.363 14.4114C142.363 13.648 142.153 13.033 141.713 12.6088C141.273 12.1635 140.623 11.9514 139.721 11.9514H137.058V16.8501V16.8289Z" fill="white"/>
<path d="M153.203 16.5747L156.557 9.2373H160.184L154.901 19.6284V25.545H151.525V19.6284L146.242 9.2373H149.89L153.224 16.5747H153.203Z" fill="white"/>
<path d="M179.956 20.0949C179.83 21.855 179.201 23.2334 178.048 24.2301C176.895 25.2268 175.364 25.7358 173.477 25.7358C171.423 25.7358 169.787 25.036 168.613 23.6363C167.439 22.2367 166.831 20.3069 166.831 17.847V16.8503C166.831 15.281 167.103 13.9026 167.649 12.715C168.194 11.5275 168.969 10.6156 169.997 9.95819C171.003 9.322 172.177 9.00391 173.54 9.00391C175.406 9.00391 176.895 9.51286 178.027 10.5096C179.159 11.5275 179.83 12.9271 179.998 14.7508H176.685C176.601 13.6905 176.308 12.9271 175.826 12.4606C175.322 11.994 174.568 11.7395 173.561 11.7395C172.45 11.7395 171.632 12.1425 171.087 12.9483C170.542 13.7541 170.248 14.9841 170.248 16.6806V17.9106C170.248 19.6707 170.521 20.9643 171.045 21.7702C171.569 22.576 172.408 23.0001 173.54 23.0001C174.568 23.0001 175.322 22.7669 175.826 22.2791C176.329 21.8126 176.622 21.0704 176.685 20.0737H179.998L179.956 20.0949Z" fill="white"/>
<path d="M195.366 17.7409C195.366 19.3526 195.094 20.7523 194.528 21.961C193.962 23.1698 193.165 24.1029 192.117 24.7603C191.068 25.4177 189.873 25.7358 188.531 25.7358C187.189 25.7358 186.015 25.4177 184.967 24.7603C183.919 24.1029 183.101 23.191 182.535 21.9822C181.969 20.7735 181.675 19.395 181.654 17.8258V17.0199C181.654 15.4082 181.948 14.0086 182.514 12.7786C183.08 11.5487 183.898 10.6156 184.946 9.9794C185.994 9.322 187.189 9.00391 188.531 9.00391C189.873 9.00391 191.068 9.322 192.117 9.9794C193.165 10.6368 193.962 11.5699 194.549 12.7786C195.136 13.9874 195.408 15.4082 195.408 16.9987V17.7197L195.366 17.7409ZM191.991 16.9987C191.991 15.281 191.697 13.9874 191.089 13.0967C190.481 12.2061 189.622 11.7607 188.51 11.7607C187.399 11.7607 186.539 12.2061 185.931 13.0755C185.323 13.945 185.03 15.2386 185.009 16.9351V17.7409C185.009 19.395 185.302 20.6886 185.91 21.6217C186.518 22.5336 187.378 23.0001 188.531 23.0001C189.684 23.0001 190.502 22.5548 191.089 21.6853C191.697 20.7947 191.991 19.5223 191.991 17.8258V17.0199V16.9987Z" fill="white"/>
<path d="M196.373 23.9333C196.373 23.4243 196.541 23.0002 196.897 22.6821C197.232 22.364 197.673 22.1943 198.197 22.1943C198.721 22.1943 199.161 22.364 199.497 22.6821C199.832 23.0002 200.021 23.4243 200.021 23.9333C200.021 24.4422 199.853 24.8451 199.518 25.1632C199.182 25.4813 198.742 25.6298 198.218 25.6298C197.694 25.6298 197.253 25.4813 196.918 25.1632C196.582 24.8451 196.415 24.4422 196.415 23.9333H196.373Z" fill="white"/>
<path d="M56.7774 33.8998H54.1147V35.7236H57.2597V36.8475H52.7309V30.019H57.2597V31.1642H54.1357V32.7971H56.7984V33.8998H56.7774Z" fill="white"/>
<path d="M60.4675 32.373L61.7255 30.019H63.319L61.3481 33.4121L63.3609 36.8475H61.7465L60.4466 34.4512L59.1466 36.8475H57.5322L59.545 33.4121L57.5742 30.019H59.1676L60.4256 32.373H60.4675Z" fill="white"/>
<path d="M69.2735 34.5785C69.2106 35.3207 68.959 35.8933 68.4768 36.3174C67.9946 36.7415 67.3446 36.9536 66.5688 36.9536C65.7092 36.9536 65.0173 36.6567 64.5141 36.0629C64.0109 35.4692 63.7803 34.6633 63.7803 33.6242V33.2001C63.7803 32.5427 63.8851 31.9701 64.1157 31.4612C64.3464 30.9522 64.6818 30.5705 65.1012 30.316C65.5205 30.0403 66.0237 29.9131 66.5898 29.9131C67.3656 29.9131 67.9946 30.1252 68.4768 30.5493C68.959 30.9734 69.2316 31.5672 69.2945 32.3306H67.9107C67.8688 31.8853 67.7639 31.5672 67.5543 31.3763C67.3446 31.1855 67.0301 31.0794 66.6108 31.0794C66.1495 31.0794 65.7931 31.2491 65.5624 31.5884C65.3318 31.9277 65.206 32.4579 65.206 33.1577V33.6666C65.206 34.4088 65.3108 34.939 65.5415 35.2783C65.7721 35.6176 66.1076 35.7873 66.5898 35.7873C67.0301 35.7873 67.3446 35.6812 67.5543 35.4904C67.7639 35.2995 67.8897 34.9814 67.9107 34.5785H69.2945H69.2735Z" fill="white"/>
<path d="M71.5798 35.7236H74.5361V36.8475H70.196V30.019H71.5798V35.7236Z" fill="white"/>
<path d="M80.3438 30.019V34.5148C80.3438 35.257 80.1132 35.8508 79.652 36.2961C79.1907 36.7415 78.5617 36.9535 77.765 36.9535C76.9682 36.9535 76.3392 36.7415 75.878 36.3173C75.4167 35.8932 75.1861 35.3206 75.1651 34.5784V30.019H76.5489V34.536C76.5489 34.9813 76.6537 35.3206 76.8634 35.5115C77.0731 35.7236 77.3666 35.8084 77.744 35.8084C78.5198 35.8084 78.9181 35.3843 78.9391 34.5572V30.019H80.3438Z" fill="white"/>
<path d="M84.9775 35.0662C84.9775 34.8118 84.8936 34.5997 84.7049 34.4513C84.5162 34.3028 84.1807 34.1544 83.6985 34.0059C83.2163 33.8575 82.8389 33.6878 82.5453 33.5394C81.7696 33.1153 81.3922 32.5639 81.3922 31.8429C81.3922 31.4824 81.497 31.1431 81.7067 30.8462C81.9164 30.5493 82.2099 30.3372 82.5873 30.1676C82.9647 29.9979 83.405 29.9131 83.8872 29.9131C84.3694 29.9131 84.7888 29.9979 85.1871 30.1676C85.5645 30.3372 85.8581 30.5917 86.0677 30.9098C86.2774 31.2279 86.3822 31.5884 86.3822 32.0125H84.9984C84.9984 31.6944 84.8936 31.4612 84.7049 31.2915C84.5162 31.1219 84.2436 31.037 83.8872 31.037C83.5308 31.037 83.2792 31.1006 83.0905 31.2491C82.9018 31.3975 82.797 31.5884 82.797 31.8217C82.797 32.0337 82.9018 32.2246 83.1324 32.373C83.3631 32.5215 83.6775 32.6699 84.1178 32.7972C84.9146 33.0304 85.4807 33.3273 85.8581 33.6878C86.2145 34.0483 86.4032 34.4937 86.4032 35.0238C86.4032 35.6176 86.1726 36.0842 85.7323 36.4235C85.292 36.7628 84.6839 36.9324 83.9501 36.9324C83.4259 36.9324 82.9647 36.8476 82.5244 36.6355C82.1051 36.4447 81.7696 36.1902 81.539 35.8509C81.3083 35.5116 81.2035 35.1299 81.2035 34.6845H82.6083C82.6083 35.448 83.0486 35.8085 83.9501 35.8085C84.2856 35.8085 84.5372 35.7448 84.7259 35.5964C84.9146 35.4692 84.9984 35.2783 84.9984 35.0238L84.9775 35.0662Z" fill="white"/>
<path d="M88.8143 36.8475H87.4305V30.019H88.8143V36.8475Z" fill="white"/>
<path d="M92.5883 35.151L94.1189 30.019H95.6704L93.3222 36.8475H91.8755L89.5272 30.019H91.0787L92.6093 35.151H92.5883Z" fill="white"/>
<path d="M100.367 33.8998H97.7042V35.7236H100.849V36.8475H96.3204V30.019H100.849V31.1642H97.7251V32.7971H100.388V33.8998H100.367Z" fill="white"/>
<path d="M104.015 36.8475V30.019H106.091C106.678 30.019 107.223 30.1463 107.684 30.422C108.146 30.6976 108.523 31.0794 108.775 31.5671C109.026 32.0761 109.173 32.6274 109.173 33.2636V33.5817C109.173 34.2179 109.047 34.7905 108.775 35.2782C108.523 35.766 108.146 36.1477 107.684 36.4234C107.223 36.6991 106.678 36.8263 106.091 36.8263H103.994L104.015 36.8475ZM105.42 31.1642V35.7236H106.091C106.636 35.7236 107.055 35.5327 107.328 35.1934C107.621 34.8329 107.768 34.3239 107.768 33.6453V33.2848C107.768 32.585 107.621 32.0549 107.349 31.7156C107.055 31.355 106.657 31.1854 106.112 31.1854H105.42V31.1642Z" fill="white"/>
<path d="M114.268 33.8998H111.605V35.7236H114.75V36.8475H110.221V30.019H114.75V31.1642H111.626V32.7971H114.289V33.8998H114.268Z" fill="white"/>
<path d="M119.048 35.0662C119.048 34.8118 118.964 34.5997 118.776 34.4513C118.587 34.3028 118.251 34.1544 117.769 34.0059C117.287 33.8575 116.91 33.6878 116.616 33.5394C115.84 33.1153 115.463 32.5639 115.463 31.8429C115.463 31.4824 115.568 31.1431 115.777 30.8462C115.987 30.5493 116.281 30.3372 116.658 30.1676C117.035 29.9979 117.476 29.9131 117.958 29.9131C118.44 29.9131 118.88 29.9979 119.258 30.1676C119.635 30.3372 119.929 30.5917 120.138 30.9098C120.348 31.2279 120.453 31.5884 120.453 32.0125H119.069C119.069 31.6944 118.964 31.4612 118.776 31.2915C118.587 31.1219 118.314 31.037 117.958 31.037C117.601 31.037 117.35 31.1006 117.161 31.2491C116.972 31.3975 116.889 31.5884 116.889 31.8217C116.889 32.0337 116.993 32.2246 117.224 32.373C117.455 32.5215 117.769 32.6699 118.209 32.7972C119.006 33.0304 119.572 33.3273 119.95 33.6878C120.306 34.0483 120.495 34.4937 120.495 35.0238C120.495 35.6176 120.264 36.0842 119.824 36.4235C119.384 36.7628 118.776 36.9324 118.042 36.9324C117.518 36.9324 117.056 36.8476 116.616 36.6355C116.197 36.4447 115.861 36.1902 115.631 35.8509C115.4 35.5116 115.295 35.1299 115.295 34.6845H116.7C116.7 35.448 117.14 35.8085 118.042 35.8085C118.377 35.8085 118.629 35.7448 118.817 35.5964C119.006 35.4692 119.09 35.2783 119.09 35.0238L119.048 35.0662Z" fill="white"/>
<path d="M122.864 36.8475H121.48V30.019H122.864V36.8475Z" fill="white"/>
<path d="M129.489 35.9991C129.238 36.296 128.881 36.5293 128.42 36.6989C127.959 36.8686 127.456 36.9534 126.89 36.9534C126.303 36.9534 125.799 36.8262 125.359 36.5717C124.919 36.3172 124.583 35.9355 124.332 35.4477C124.101 34.96 123.975 34.3874 123.954 33.7088V33.2423C123.954 32.5637 124.059 31.9699 124.29 31.4821C124.52 30.9732 124.835 30.5915 125.275 30.337C125.695 30.0825 126.198 29.9341 126.785 29.9341C127.582 29.9341 128.21 30.1249 128.672 30.5067C129.112 30.8884 129.385 31.4609 129.468 32.2032H128.106C128.043 31.8215 127.917 31.5246 127.686 31.3337C127.477 31.1428 127.183 31.058 126.806 31.058C126.324 31.058 125.967 31.2277 125.715 31.5882C125.464 31.9487 125.338 32.4789 125.338 33.1999V33.6452C125.338 34.3662 125.464 34.8964 125.736 35.2781C126.009 35.6386 126.407 35.8295 126.911 35.8295C127.414 35.8295 127.812 35.7234 128.022 35.4902V34.3026H126.764V33.2635H129.427V35.9991H129.489Z" fill="white"/>
<path d="M136.115 36.8475H134.731L132.026 32.3517V36.8475H130.643V30.019H132.026L134.731 34.5148V30.019H136.115V36.8475Z" fill="white"/>
<path d="M34.4061 22.5125C34.4061 22.3852 34.3642 22.258 34.3222 22.1308C34.1545 21.4946 33.7561 20.922 33.1691 20.4979C33.0852 20.4343 33.0013 20.3918 32.8965 20.3282L18.4925 12.1637C17.1716 11.4215 15.641 11.8032 14.7604 12.8211C14.7395 12.8636 14.6975 12.906 14.6766 12.9272C14.5717 13.0756 14.4669 13.2029 14.383 13.3725C14.1524 13.7966 14.0266 14.2844 14.0266 14.8358V31.1435C14.0266 31.3343 14.0266 31.504 14.0685 31.6736C14.1314 32.0342 14.2572 32.3523 14.425 32.6279C15.2007 33.9851 16.9829 34.6213 18.5135 33.7519L28.7242 27.9837L32.9175 25.6086C33.6513 25.1845 34.1335 24.5271 34.3432 23.8061C34.469 23.3607 34.49 22.9154 34.4271 22.4489L34.4061 22.5125Z" fill="white"/>
<path d="M22.2455 45.5C9.98008 45.5 0 35.4058 0 23C0 10.5943 9.98008 0.5 22.2455 0.5C34.511 0.5 44.491 10.5943 44.491 23C44.491 35.4058 34.511 45.5 22.2455 45.5ZM22.2455 3.27804C11.4897 3.27804 2.74662 12.1211 2.74662 23C2.74662 33.8789 11.4897 42.722 22.2455 42.722C33.0014 42.722 41.7444 33.8789 41.7444 23C41.7444 12.1211 32.9804 3.27804 22.2455 3.27804Z" fill="white"/>
</g>
<defs>
<clipPath id="clip0_10_499">
<rect width="200" height="45" fill="white" transform="translate(0 0.5)"/>
</clipPath>
</defs>
</svg>
