<svg width="200" height="42" viewBox="0 0 200 42" fill="none" xmlns="http://www.w3.org/2000/svg">
<g clip-path="url(#clip0_10_475)">
<path d="M76.3413 2.74512V27.0164H70.4957V13.3328L64.9157 27.0164H60.5621L54.9821 13.3328V27.0164H49.1364V2.74512H55.8406L62.7491 19.4832L69.6372 2.74512H76.3413Z" fill="white"/>
<path d="M87.3173 2.74512V27.0164H81.4716V2.74512H87.3173Z" fill="white"/>
<path d="M113.95 26.9958H108.104L98.3138 11.6818V26.9958H92.4681V2.6626H98.3138L108.104 17.9766V2.6626H113.95V26.9958Z" fill="white"/>
<path d="M124.946 2.74512V27.0164H119.101V2.74512H124.946Z" fill="white"/>
<path d="M157.302 2.74512V27.0164H151.456V13.3328L145.876 27.0164H141.523L135.943 13.3328V27.0164H130.097V2.74512H136.801L143.71 19.4832L150.598 2.74512H157.302Z" fill="white"/>
<path d="M176.372 22.9298H167.747L166.418 27.0163H160.184L168.544 2.68311H175.657L183.975 27.0163H177.721L176.392 22.9298H176.372ZM174.9 18.4305L172.059 9.78286L169.218 18.4305H174.9Z" fill="white"/>
<path d="M192.703 22.5171H200V27.0164H186.857V2.74512H192.703V22.5171Z" fill="white"/>
<path d="M49.443 32.7334V41.0921H47.4195V32.7334H49.443Z" fill="white"/>
<path d="M58.6203 41.0713H56.5968L53.2243 35.8084V41.0713H51.2008V32.6919H53.2243L56.5968 37.9548V32.6919H58.6203V41.0713Z" fill="white"/>
<path d="M67.2458 39.0695C66.8574 39.7093 66.326 40.2047 65.6311 40.5555C64.9361 40.9064 64.1594 41.0921 63.301 41.0921H60.3986V32.7334H63.301C64.1799 32.7334 64.9566 32.8985 65.6311 33.2494C66.3056 33.6002 66.8574 34.0956 67.2458 34.7147C67.6341 35.3545 67.8385 36.0769 67.8385 36.9024C67.8385 37.728 67.6341 38.4297 67.2458 39.0695ZM65.0996 38.8219C65.5493 38.3472 65.7537 37.7074 65.7537 36.9024C65.7537 36.0975 65.5289 35.4577 65.0996 34.983C64.65 34.5083 64.0572 34.2607 63.2805 34.2607H62.3812V39.5236H63.2805C64.0572 39.5236 64.65 39.2759 65.0996 38.8012V38.8219Z" fill="white"/>
<path d="M71.068 32.7334V37.728C71.068 38.2233 71.1906 38.6155 71.4359 38.8838C71.6812 39.1521 72.0286 39.2965 72.4987 39.2965C72.9688 39.2965 73.3368 39.1521 73.582 38.8838C73.8273 38.6155 73.9499 38.2233 73.9499 37.728V32.7334H75.9734V37.728C75.9734 38.471 75.8099 39.0902 75.4829 39.6061C75.1559 40.1221 74.7266 40.5142 74.1952 40.7825C73.6638 41.0508 73.0915 41.1747 72.4783 41.1747C71.8651 41.1747 71.2928 41.0508 70.7818 40.7825C70.2504 40.5142 69.8416 40.1221 69.535 39.6061C69.2284 39.0902 69.0649 38.4504 69.0649 37.728V32.7334H71.0884H71.068Z" fill="white"/>
<path d="M83.3521 39.8744C83.1068 40.2665 82.7389 40.5761 82.2688 40.8031C81.7987 41.0301 81.2672 41.154 80.6745 41.154C79.7138 41.154 78.9371 40.927 78.3648 40.4729C77.7925 40.0188 77.5064 39.379 77.5064 38.5535H79.6525C79.7138 39.2139 80.0409 39.5441 80.6745 39.5441C80.9607 39.5441 81.1855 39.4616 81.349 39.3171C81.5125 39.152 81.5943 38.9663 81.5943 38.698C81.5943 38.4709 81.533 38.2852 81.3899 38.1407C81.2468 37.9962 81.0833 37.893 80.8789 37.8105C80.6745 37.7279 80.3883 37.6454 80 37.5215C79.489 37.3771 79.0598 37.2326 78.7327 37.0881C78.4057 36.9437 78.1196 36.7166 77.8947 36.407C77.6495 36.0975 77.5473 35.6847 77.5473 35.1687C77.5473 34.6528 77.6699 34.1987 77.956 33.8066C78.2218 33.4144 78.5897 33.1255 79.0393 32.8984C79.5094 32.6921 80 32.5889 80.5723 32.5889C81.4921 32.5889 82.2279 32.7953 82.7798 33.208C83.3316 33.6208 83.6178 34.2606 83.6382 35.1481H81.4512C81.4103 34.8385 81.3286 34.6115 81.165 34.4464C81.0015 34.2813 80.7971 34.1987 80.5519 34.1987C80.2861 34.1987 80.0817 34.2606 79.9182 34.4051C79.7547 34.5496 79.673 34.7559 79.673 35.0242C79.673 35.2513 79.7343 35.437 79.8774 35.5815C80.0204 35.726 80.2044 35.8498 80.4088 35.9324C80.6336 36.0149 80.9198 36.0975 81.2877 36.2007C81.8191 36.3451 82.2483 36.4896 82.5754 36.6341C82.9024 36.7785 83.1886 37.0056 83.4134 37.3152C83.6382 37.6247 83.7609 38.0375 83.7609 38.5741C83.7609 39.0282 83.6382 39.4616 83.3725 39.8537L83.3521 39.8744Z" fill="white"/>
<path d="M91.303 32.7334V34.2813H89.0342V41.0921H87.0107V34.2813H84.7624V32.7334H91.2826H91.303Z" fill="white"/>
<path d="M96.6173 41.0716L94.7573 37.8313H94.512V41.0716H92.4885V32.7129H95.7588C96.3924 32.7129 96.9647 32.8367 97.4144 33.0638C97.8845 33.3114 98.2115 33.621 98.4568 34.0131C98.7021 34.4053 98.8043 34.818 98.8043 35.2721C98.8043 35.7674 98.6612 36.2215 98.3751 36.6962C98.0889 37.1502 97.5984 37.4805 96.9443 37.6662L98.9678 41.0716H96.6173ZM94.512 36.2834H95.7588C96.0654 36.2834 96.3107 36.2009 96.4742 36.0151C96.6581 35.8294 96.7399 35.5817 96.7399 35.2927C96.7399 35.0038 96.6581 34.7561 96.4742 34.5704C96.2902 34.3846 96.045 34.2814 95.7588 34.2814H94.512V36.2834Z" fill="white"/>
<path d="M107.409 32.7334L104.548 38.4091V41.0921H102.524V38.4091L99.6628 32.7334H101.952L103.546 36.5103L105.12 32.7334H107.409Z" fill="white"/>
<path d="M118.222 33.3527C118.937 33.8481 119.428 34.5291 119.714 35.396H117.302C117.138 35.0658 116.934 34.8387 116.668 34.6943C116.423 34.5498 116.117 34.4879 115.749 34.4879C115.074 34.4879 114.543 34.7149 114.154 35.1483C113.766 35.5817 113.562 36.1596 113.562 36.9026C113.562 37.6456 113.766 38.2235 114.154 38.6569C114.543 39.0903 115.074 39.3173 115.749 39.3173C116.117 39.3173 116.423 39.2554 116.668 39.111C116.914 38.9665 117.118 38.7395 117.302 38.4092H119.714C119.428 39.2761 118.937 39.9572 118.222 40.4525C117.506 40.9478 116.689 41.1955 115.769 41.1955C114.992 41.1955 114.277 41.0097 113.623 40.6589C112.969 40.2874 112.458 39.792 112.09 39.1316C111.722 38.4712 111.518 37.7488 111.518 36.9232C111.518 36.0977 111.702 35.3753 112.09 34.7149C112.458 34.0751 112.989 33.5591 113.623 33.1876C114.277 32.8161 114.992 32.6304 115.769 32.6304C116.689 32.6304 117.506 32.878 118.222 33.3734V33.3527Z" fill="white"/>
<path d="M126.909 33.1461C127.563 33.5176 128.074 34.0129 128.441 34.6734C128.809 35.3338 128.993 36.0562 128.993 36.8817C128.993 37.7073 128.809 38.4297 128.421 39.0901C128.053 39.7505 127.542 40.2459 126.888 40.6174C126.254 40.9889 125.539 41.154 124.762 41.154C123.986 41.154 123.27 40.9682 122.616 40.6174C121.962 40.2459 121.451 39.7505 121.083 39.0901C120.715 38.4297 120.511 37.7073 120.511 36.8817C120.511 36.0562 120.695 35.3338 121.083 34.6734C121.451 34.0336 121.983 33.5176 122.616 33.1461C123.27 32.7746 123.986 32.5889 124.762 32.5889C125.539 32.5889 126.254 32.7746 126.909 33.1461ZM123.168 35.1274C122.78 35.5609 122.575 36.1387 122.575 36.8817C122.575 37.6247 122.78 38.2026 123.168 38.636C123.556 39.0695 124.088 39.2965 124.762 39.2965C125.437 39.2965 125.948 39.0695 126.357 38.636C126.745 38.2026 126.949 37.6247 126.949 36.8817C126.949 36.1387 126.745 35.5609 126.357 35.1274C125.968 34.694 125.437 34.467 124.762 34.467C124.088 34.467 123.556 34.694 123.168 35.1274Z" fill="white"/>
<path d="M130.138 39.1725C130.342 38.9661 130.608 38.8423 130.915 38.8423C131.221 38.8423 131.487 38.9455 131.712 39.1725C131.916 39.3789 132.039 39.6472 132.039 39.9774C132.039 40.3076 131.937 40.5553 131.712 40.7617C131.507 40.9681 131.242 41.0919 130.915 41.0919C130.588 41.0919 130.342 40.9887 130.138 40.7617C129.934 40.5553 129.811 40.287 129.811 39.9774C129.811 39.6678 129.913 39.3995 130.138 39.1725Z" fill="white"/>
<path d="M20.8074 0H0V21.0103H20.8074V0Z" fill="white"/>
<path d="M41.6147 21.0103H20.8074V42.0206H41.6147V21.0103Z" fill="white"/>
</g>
<defs>
<clipPath id="clip0_10_475">
<rect width="200" height="42" fill="white"/>
</clipPath>
</defs>
</svg>
