<svg width="60" height="60" viewBox="0 0 60 60" fill="none" xmlns="http://www.w3.org/2000/svg">
<circle cx="30" cy="30" r="30" fill="#802064"/>
<path d="M29.0625 35.625V38.4375C29.0625 39.1834 28.7662 39.8988 28.2387 40.4262C27.7113 40.9537 26.9959 41.25 26.25 41.25H20.9062L18.3281 42.9656C18.1871 43.0585 18.0237 43.1115 17.855 43.1192C17.6864 43.1269 17.5188 43.0888 17.3699 43.0091C17.2211 42.9294 17.0965 42.811 17.0094 42.6664C16.9223 42.5218 16.8759 42.3563 16.875 42.1875V35.625C16.875 34.8791 17.1713 34.1637 17.6988 33.6363C18.2262 33.1088 18.9416 32.8125 19.6875 32.8125H26.25C26.9959 32.8125 27.7113 33.1088 28.2387 33.6363C28.7662 34.1637 29.0625 34.8791 29.0625 35.625ZM21.1125 22.6313L21.2719 22.5563H21.4594H21.6281H21.8063C21.8612 22.5693 21.9146 22.5882 21.9656 22.6125L22.125 22.7156C22.125 22.7156 22.2 22.7156 22.2281 22.7812L24.4969 25.05L26.6719 23.6063C26.7686 23.5228 26.8846 23.4648 27.0094 23.4375H27.3656C27.4878 23.4566 27.6036 23.5048 27.7031 23.5781L30.9375 25.7437V19.6875C30.9375 18.9416 30.6412 18.2262 30.1137 17.6988C29.5863 17.1713 28.8709 16.875 28.125 16.875H19.6875C18.9416 16.875 18.2262 17.1713 17.6988 17.6988C17.1713 18.2262 16.875 18.9416 16.875 19.6875V25.7812L21 22.6875L21.1125 22.6313ZM30.9375 28.0031L27.1875 25.5L25.8469 26.4375L25.9781 26.5594C26.066 26.6465 26.1357 26.7502 26.1833 26.8645C26.2309 26.9787 26.2554 27.1012 26.2554 27.225C26.2554 27.3488 26.2309 27.4713 26.1833 27.5855C26.1357 27.6998 26.066 27.8035 25.9781 27.8906C25.891 27.9785 25.7873 28.0482 25.673 28.0958C25.5588 28.1434 25.4363 28.1679 25.3125 28.1679C25.1887 28.1679 25.0662 28.1434 24.952 28.0958C24.8377 28.0482 24.734 27.9785 24.6469 27.8906L21.4781 24.675L16.875 28.125C16.875 28.8709 17.1713 29.5863 17.6988 30.1137C18.2262 30.6412 18.9416 30.9375 19.6875 30.9375H28.125C28.8709 30.9375 29.5863 30.6412 30.1137 30.1137C30.6412 29.5863 30.9375 28.8709 30.9375 28.125V28.0031ZM43.125 19.6875V28.125C43.125 28.8709 42.8287 29.5863 42.3012 30.1137C41.7738 30.6412 41.0584 30.9375 40.3125 30.9375H35.625C34.8791 30.9375 34.1637 30.6412 33.6363 30.1137C33.1088 29.5863 32.8125 28.8709 32.8125 28.125V19.6875C32.8125 18.9416 33.1088 18.2262 33.6363 17.6988C34.1637 17.1713 34.8791 16.875 35.625 16.875H40.3125C41.0584 16.875 41.7738 17.1713 42.3012 17.6988C42.8287 18.2262 43.125 18.9416 43.125 19.6875ZM40.3125 27.1875C40.3125 26.9389 40.2137 26.7004 40.0379 26.5246C39.8621 26.3488 39.6236 26.25 39.375 26.25H36.5625C36.3139 26.25 36.0754 26.3488 35.8996 26.5246C35.7238 26.7004 35.625 26.9389 35.625 27.1875C35.625 27.4361 35.7238 27.6746 35.8996 27.8504C36.0754 28.0262 36.3139 28.125 36.5625 28.125H39.375C39.6236 28.125 39.8621 28.0262 40.0379 27.8504C40.2137 27.6746 40.3125 27.4361 40.3125 27.1875ZM40.3125 23.9062C40.3125 23.6576 40.2137 23.4192 40.0379 23.2433C39.8621 23.0675 39.6236 22.9688 39.375 22.9688H36.5625C36.3139 22.9688 36.0754 23.0675 35.8996 23.2433C35.7238 23.4192 35.625 23.6576 35.625 23.9062C35.625 24.1549 35.7238 24.3933 35.8996 24.5692C36.0754 24.745 36.3139 24.8438 36.5625 24.8438H39.375C39.6236 24.8438 39.8621 24.745 40.0379 24.5692C40.2137 24.3933 40.3125 24.1549 40.3125 23.9062ZM40.3125 20.625C40.3125 20.3764 40.2137 20.1379 40.0379 19.9621C39.8621 19.7863 39.6236 19.6875 39.375 19.6875H36.5625C36.3139 19.6875 36.0754 19.7863 35.8996 19.9621C35.7238 20.1379 35.625 20.3764 35.625 20.625C35.625 20.8736 35.7238 21.1121 35.8996 21.2879C36.0754 21.4637 36.3139 21.5625 36.5625 21.5625H39.375C39.6236 21.5625 39.8621 21.4637 40.0379 21.2879C40.2137 21.1121 40.3125 20.8736 40.3125 20.625ZM43.125 35.625V40.3125C43.125 41.0584 42.8287 41.7738 42.3012 42.3012C41.7738 42.8287 41.0584 43.125 40.3125 43.125H33.75C33.0041 43.125 32.2887 42.8287 31.7613 42.3012C31.2338 41.7738 30.9375 41.0584 30.9375 40.3125V35.625C30.9375 34.8791 31.2338 34.1637 31.7613 33.6363C32.2887 33.1088 33.0041 32.8125 33.75 32.8125H40.3125C41.0584 32.8125 41.7738 33.1088 42.3012 33.6363C42.8287 34.1637 43.125 34.8791 43.125 35.625ZM38.9062 37.9688C38.9057 37.7956 38.8573 37.626 38.7663 37.4788C38.6752 37.3315 38.5452 37.2123 38.3906 37.1344L36.5156 36.1969C36.3729 36.125 36.2142 36.0907 36.0545 36.0974C35.8948 36.1041 35.7395 36.1515 35.6033 36.2351C35.4671 36.3187 35.3546 36.4357 35.2763 36.5751C35.1981 36.7144 35.1567 36.8714 35.1562 37.0312V38.9062C35.1559 39.0656 35.1962 39.2223 35.2733 39.3618C35.3504 39.5012 35.4618 39.6187 35.5969 39.7031C35.7461 39.7956 35.9182 39.8443 36.0938 39.8438C36.2405 39.8429 36.385 39.8075 36.5156 39.7406L38.3906 38.8031C38.5452 38.7252 38.6752 38.606 38.7663 38.4587C38.8573 38.3115 38.9057 38.1419 38.9062 37.9688Z" fill="white"/>
</svg>
