<svg width="60" height="60" viewBox="0 0 60 60" fill="none" xmlns="http://www.w3.org/2000/svg">
<circle cx="30" cy="30" r="30" fill="#802064"/>
<path d="M42.3674 27.4558L30.6669 15.7536C29.9768 15.0652 28.8605 15.0733 28.1795 15.7527C27.4946 16.4393 27.4946 17.5543 28.1795 18.2401L39.8817 29.9414C40.5672 30.627 41.6818 30.627 42.3674 29.9414C43.0548 29.254 43.0548 28.1431 42.3674 27.4558Z" fill="white"/>
<path d="M27.3114 19.8577L27.2234 20.2991C26.603 23.4021 25.0954 26.35 23.0563 28.7393L29.4223 35.1054C31.8113 33.0667 34.7186 31.5185 37.8218 30.8975L38.264 30.8094L27.3114 19.8577Z" fill="white"/>
<path d="M21.8891 30.058L17.5384 34.4079C16.5103 35.4359 16.5061 37.1049 17.5384 38.1372L20.024 40.6229C21.0521 41.6509 22.7211 41.6551 23.7534 40.6229L28.1037 36.2725L21.8891 30.058ZM22.5106 36.8944C22.1673 37.2377 21.6111 37.2377 21.2678 36.8944C20.9245 36.5511 20.9245 35.9949 21.2678 35.6516L22.5106 34.4088C22.8539 34.0655 23.4101 34.0655 23.7534 34.4088C24.0967 34.7521 24.0967 35.3083 23.7534 35.6516L22.5106 36.8944Z" fill="white"/>
<path d="M31.7734 41.0905L32.969 39.8949C34.0014 38.8627 33.998 37.1937 32.9691 36.1665L32.0811 35.2778C31.5902 35.6075 31.1215 35.9658 30.6657 36.348L31.7263 37.4102C32.0688 37.7509 32.0712 38.3054 31.7263 38.6521L30.5109 39.8675L28.7249 38.137L26.2391 40.6228L30.2268 44.4869C30.9073 45.1692 32.0246 45.173 32.7116 44.486C33.3974 43.8003 33.3974 42.6853 32.7116 41.9995L31.7734 41.0905Z" fill="white"/>
<path d="M35.3241 15C34.8383 15 34.4452 15.3931 34.4452 15.8789V17.6367C34.4452 18.1225 34.8383 18.5156 35.3241 18.5156C35.8099 18.5156 36.203 18.1225 36.203 17.6367V15.8789C36.203 15.3931 35.8099 15 35.3241 15Z" fill="white"/>
<path d="M42.3554 22.0312H40.5975C40.1117 22.0312 39.7186 22.4244 39.7186 22.9102C39.7186 23.396 40.1117 23.7891 40.5975 23.7891H42.3554C42.8412 23.7891 43.2343 23.396 43.2343 22.9102C43.2343 22.4244 42.8412 22.0312 42.3554 22.0312Z" fill="white"/>
<path d="M41.2189 17.0153C40.8756 16.672 40.3194 16.672 39.9761 17.0153L38.2183 18.7731C37.875 19.1164 37.875 19.6726 38.2183 20.0159C38.5616 20.3592 39.1178 20.3593 39.4611 20.0159L41.2189 18.2581C41.5622 17.9148 41.5622 17.3586 41.2189 17.0153Z" fill="white"/>
</svg>
