<svg width="102" height="103" viewBox="0 0 102 103" fill="none" xmlns="http://www.w3.org/2000/svg">
<path d="M98.8167 66.1137C95.5929 76.6623 88.9714 85.8488 79.9834 92.2427C70.9953 98.6365 60.1453 101.879 49.1228 101.465C38.1004 101.051 27.5242 97.0033 19.0413 89.9531C10.5583 82.9028 4.6448 73.2454 2.22154 62.4846C-0.201718 51.7239 1.00131 40.4638 5.6433 30.4579C10.2853 20.452 18.1057 12.2619 27.8866 7.16298C37.6676 2.06406 48.8601 0.342529 59.7212 2.26647C70.5824 4.19042 80.5025 9.65185 87.9368 17.8003" stroke="#F68B29" stroke-width="2" stroke-linecap="round"/>
<path d="M75.7347 46.9115L52.3338 23.5071C50.9536 22.1304 48.7211 22.1467 47.359 23.5054C45.9892 24.8787 45.9892 27.1085 47.359 28.4801L70.7634 51.8828C72.1345 53.2539 74.3635 53.2539 75.7347 51.8828C77.1096 50.508 77.1096 48.2861 75.7347 46.9115Z" fill="#802064"/>
<path d="M45.6229 31.7155L45.4468 32.5983C44.2061 38.8044 41.1909 44.7002 37.1126 49.4788L49.8447 62.2109C54.6227 58.1334 60.4373 55.0372 66.6436 53.795L67.5281 53.6189L45.6229 31.7155Z" fill="#802064"/>
<path d="M34.7783 52.116L26.0768 60.8157C24.0208 62.8718 24.0122 66.2098 26.0768 68.2744L31.0481 73.2457C33.1042 75.3018 36.4422 75.3102 38.5068 73.2457L47.2075 64.545L34.7783 52.116ZM36.0212 65.7888C35.3346 66.4754 34.2222 66.4754 33.5356 65.7888C32.849 65.1022 32.849 63.9898 33.5356 63.3032L36.0212 60.8175C36.7078 60.1309 37.8203 60.1309 38.5069 60.8175C39.1935 61.5041 39.1935 62.6166 38.5069 63.3032L36.0212 65.7888Z" fill="#802064"/>
<path d="M54.5469 74.1812L56.9381 71.7899C59.0028 69.7256 58.996 66.3876 56.9382 64.3332L55.1621 62.5558C54.1804 63.2152 53.2429 63.9317 52.3314 64.6962L54.4525 66.8205C55.1375 67.5019 55.1423 68.611 54.4525 69.3044L52.0218 71.7351L48.4497 68.2742L43.4781 73.2458L51.4536 80.9739C52.8146 82.3385 55.0493 82.3462 56.4232 80.9722C57.7947 79.6006 57.7947 77.3708 56.4232 75.9991L54.5469 74.1812Z" fill="#802064"/>
<path d="M61.6482 22C60.6766 22 59.8904 22.7862 59.8904 23.7578V27.2734C59.8904 28.2451 60.6766 29.0313 61.6482 29.0313C62.6198 29.0313 63.406 28.2451 63.406 27.2734V23.7578C63.406 22.7862 62.6198 22 61.6482 22Z" fill="#802064"/>
<path d="M75.7107 36.0625H72.1951C71.2235 36.0625 70.4373 36.8487 70.4373 37.8203C70.4373 38.7919 71.2235 39.5781 72.1951 39.5781H75.7107C76.6823 39.5781 77.4685 38.7919 77.4685 37.8203C77.4685 36.8487 76.6823 36.0625 75.7107 36.0625Z" fill="#802064"/>
<path d="M73.4379 26.0306C72.7513 25.344 71.6388 25.344 70.9522 26.0306L67.4366 29.5462C66.75 30.2328 66.75 31.3453 67.4366 32.0319C68.1232 32.7185 69.2356 32.7186 69.9223 32.0319L73.4379 28.5162C74.1245 27.8296 74.1245 26.7172 73.4379 26.0306Z" fill="#802064"/>
</svg>
