<svg width="102" height="102" viewBox="0 0 102 102" fill="none" xmlns="http://www.w3.org/2000/svg">
<path d="M98.8167 65.6137C95.5929 76.1623 88.9714 85.3488 79.9834 91.7427C70.9953 98.1365 60.1453 101.379 49.1228 100.965C38.1004 100.551 27.5242 96.5033 19.0413 89.4531C10.5583 82.4028 4.6448 72.7454 2.22154 61.9846C-0.201718 51.2239 1.00131 39.9638 5.6433 29.9579C10.2853 19.952 18.1057 11.7619 27.8866 6.66298C37.6676 1.56406 48.8601 -0.157471 59.7212 1.76647C70.5824 3.69042 80.5025 9.15185 87.9368 17.3003" stroke="#F68B29" stroke-width="2" stroke-linecap="round"/>
<path d="M49.125 62.75V68.375C49.125 69.8668 48.5324 71.2976 47.4775 72.3525C46.4226 73.4074 44.9918 74 43.5 74H32.8125L27.6562 77.4313C27.3743 77.617 27.0473 77.7231 26.71 77.7384C26.3727 77.7537 26.0375 77.6777 25.7399 77.5183C25.4422 77.3589 25.1931 77.122 25.0189 76.8328C24.8446 76.5436 24.7517 76.2127 24.75 75.875V62.75C24.75 61.2582 25.3426 59.8274 26.3975 58.7725C27.4524 57.7176 28.8832 57.125 30.375 57.125H43.5C44.9918 57.125 46.4226 57.7176 47.4775 58.7725C48.5324 59.8274 49.125 61.2582 49.125 62.75ZM33.225 36.7625L33.5437 36.6125H33.9187H34.2563H34.6125C34.7224 36.6386 34.8293 36.6763 34.9312 36.725L35.25 36.9312C35.25 36.9312 35.4 36.9313 35.4563 37.0625L39.9938 41.6L44.3438 38.7125C44.5372 38.5457 44.7692 38.4297 45.0188 38.375H45.7312C45.9756 38.4131 46.2071 38.5096 46.4062 38.6562L52.875 42.9875V30.875C52.875 29.3832 52.2824 27.9524 51.2275 26.8975C50.1726 25.8426 48.7418 25.25 47.25 25.25H30.375C28.8832 25.25 27.4524 25.8426 26.3975 26.8975C25.3426 27.9524 24.75 29.3832 24.75 30.875V43.0625L33 36.875L33.225 36.7625ZM52.875 47.5063L45.375 42.5L42.6937 44.375L42.9562 44.6187C43.132 44.7931 43.2715 45.0004 43.3667 45.2289C43.4619 45.4574 43.5109 45.7025 43.5109 45.95C43.5109 46.1975 43.4619 46.4426 43.3667 46.6711C43.2715 46.8996 43.132 47.1069 42.9562 47.2812C42.7819 47.457 42.5746 47.5965 42.3461 47.6917C42.1176 47.7869 41.8725 47.8359 41.625 47.8359C41.3775 47.8359 41.1324 47.7869 40.9039 47.6917C40.6754 47.5965 40.4681 47.457 40.2937 47.2812L33.9562 40.85L24.75 47.75C24.75 49.2418 25.3426 50.6726 26.3975 51.7275C27.4524 52.7824 28.8832 53.375 30.375 53.375H47.25C48.7418 53.375 50.1726 52.7824 51.2275 51.7275C52.2824 50.6726 52.875 49.2418 52.875 47.75V47.5063ZM77.25 30.875V47.75C77.25 49.2418 76.6574 50.6726 75.6025 51.7275C74.5476 52.7824 73.1168 53.375 71.625 53.375H62.25C60.7582 53.375 59.3274 52.7824 58.2725 51.7275C57.2176 50.6726 56.625 49.2418 56.625 47.75V30.875C56.625 29.3832 57.2176 27.9524 58.2725 26.8975C59.3274 25.8426 60.7582 25.25 62.25 25.25H71.625C73.1168 25.25 74.5476 25.8426 75.6025 26.8975C76.6574 27.9524 77.25 29.3832 77.25 30.875ZM71.625 45.875C71.625 45.3777 71.4275 44.9008 71.0758 44.5492C70.7242 44.1975 70.2473 44 69.75 44H64.125C63.6277 44 63.1508 44.1975 62.7992 44.5492C62.4475 44.9008 62.25 45.3777 62.25 45.875C62.25 46.3723 62.4475 46.8492 62.7992 47.2008C63.1508 47.5525 63.6277 47.75 64.125 47.75H69.75C70.2473 47.75 70.7242 47.5525 71.0758 47.2008C71.4275 46.8492 71.625 46.3723 71.625 45.875ZM71.625 39.3125C71.625 38.8152 71.4275 38.3383 71.0758 37.9867C70.7242 37.635 70.2473 37.4375 69.75 37.4375H64.125C63.6277 37.4375 63.1508 37.635 62.7992 37.9867C62.4475 38.3383 62.25 38.8152 62.25 39.3125C62.25 39.8098 62.4475 40.2867 62.7992 40.6383C63.1508 40.99 63.6277 41.1875 64.125 41.1875H69.75C70.2473 41.1875 70.7242 40.99 71.0758 40.6383C71.4275 40.2867 71.625 39.8098 71.625 39.3125ZM71.625 32.75C71.625 32.2527 71.4275 31.7758 71.0758 31.4242C70.7242 31.0725 70.2473 30.875 69.75 30.875H64.125C63.6277 30.875 63.1508 31.0725 62.7992 31.4242C62.4475 31.7758 62.25 32.2527 62.25 32.75C62.25 33.2473 62.4475 33.7242 62.7992 34.0758C63.1508 34.4275 63.6277 34.625 64.125 34.625H69.75C70.2473 34.625 70.7242 34.4275 71.0758 34.0758C71.4275 33.7242 71.625 33.2473 71.625 32.75ZM77.25 62.75V72.125C77.25 73.6168 76.6574 75.0476 75.6025 76.1025C74.5476 77.1574 73.1168 77.75 71.625 77.75H58.5C57.0082 77.75 55.5774 77.1574 54.5225 76.1025C53.4676 75.0476 52.875 73.6168 52.875 72.125V62.75C52.875 61.2582 53.4676 59.8274 54.5225 58.7725C55.5774 57.7176 57.0082 57.125 58.5 57.125H71.625C73.1168 57.125 74.5476 57.7176 75.6025 58.7725C76.6574 59.8274 77.25 61.2582 77.25 62.75ZM68.8125 67.4375C68.8115 67.0912 68.7145 66.7521 68.5325 66.4575C68.3505 66.163 68.0905 65.9246 67.7812 65.7688L64.0312 63.8938C63.7458 63.7499 63.4284 63.6814 63.109 63.6948C62.7897 63.7082 62.4791 63.803 62.2067 63.9702C61.9343 64.1374 61.7091 64.3714 61.5526 64.6501C61.3961 64.9288 61.3135 65.2429 61.3125 65.5625V69.3125C61.3119 69.6311 61.3924 69.9447 61.5466 70.2236C61.7008 70.5024 61.9235 70.7374 62.1937 70.9062C62.4921 71.0912 62.8365 71.1886 63.1875 71.1875C63.481 71.1857 63.77 71.1151 64.0312 70.9812L67.7812 69.1062C68.0905 68.9504 68.3505 68.712 68.5325 68.4175C68.7145 68.1229 68.8115 67.7838 68.8125 67.4375Z" fill="#802064"/>
</svg>
