<svg width="102" height="102" viewBox="0 0 102 102" fill="none" xmlns="http://www.w3.org/2000/svg">
<path d="M98.8167 65.6137C95.5929 76.1623 88.9714 85.3488 79.9834 91.7427C70.9953 98.1365 60.1453 101.379 49.1228 100.965C38.1004 100.551 27.5242 96.5033 19.0413 89.4531C10.5583 82.4028 4.6448 72.7454 2.22154 61.9846C-0.201718 51.2239 1.00131 39.9638 5.6433 29.9579C10.2853 19.952 18.1057 11.7619 27.8866 6.66298C37.6676 1.56406 48.8601 -0.157471 59.7212 1.76647C70.5824 3.69042 80.5025 9.15185 87.9368 17.3003" stroke="#F68B29" stroke-width="2" stroke-linecap="round"/>
<path d="M71.4983 64.05C71.3495 63.9448 65.5224 51.2798 65.1926 50.7166C65.2881 50.4158 65.3046 50.0956 65.2406 49.7866C65.1765 49.4777 65.034 49.1904 64.8268 48.9524C62.5396 46.9286 56.9641 52.1582 54.7586 54.1599C53.7874 55.1915 47.0583 61.3918 49.1286 63.9937C49.3543 64.206 49.6305 64.3572 49.9311 64.4328C50.2316 64.5083 50.5465 64.5057 50.8458 64.4253L59.516 68.9856L55.3122 73.0203C55.0853 73.2321 54.9035 73.4876 54.7777 73.7714C54.652 74.0552 54.5848 74.3614 54.5804 74.6718C54.6087 75.1333 54.7387 75.5829 54.9609 75.9884C55.1831 76.3939 55.4922 76.7453 55.8659 77.0176C56.0808 77.2426 56.338 77.4231 56.6227 77.5487C56.9074 77.6742 57.2141 77.7425 57.5252 77.7494C57.8363 77.7564 58.1458 77.702 58.4358 77.5893C58.7259 77.4766 58.9909 77.3079 59.2157 77.0927L64.8456 71.6974C69.2863 73.2108 73.6117 68.2691 71.4983 64.05ZM50.6675 62.5675C50.6566 61.7354 52.5281 58.9294 56.0535 55.5113C59.6294 52.1111 62.4487 50.4654 63.3443 50.4067C62.8415 51.849 61.3415 54.0932 57.9021 57.4442C54.4298 60.693 52.1102 62.1511 50.6675 62.5675Z" fill="#802064"/>
<path d="M56.0031 43.903C55.88 43.9077 55.759 43.9368 55.6471 43.9884C55.5352 44.0399 55.4346 44.1131 55.351 44.2036C55.2673 44.2941 55.2024 44.4002 55.1598 44.5158C55.1172 44.6315 55.0979 44.7543 55.1028 44.8775L55.2462 48.5153C55.2511 48.6384 55.2802 48.7593 55.3318 48.8712C55.3834 48.9831 55.4566 49.0837 55.547 49.1673C55.6375 49.2509 55.7436 49.3158 55.8592 49.3584C55.9748 49.401 56.0977 49.4205 56.2208 49.4156C56.3439 49.4107 56.4648 49.3816 56.5767 49.33C56.6885 49.2784 56.7891 49.2053 56.8727 49.1148C56.9563 49.0243 57.0213 48.9182 57.0639 48.8026C57.1065 48.687 57.1259 48.5642 57.1211 48.4411L56.9776 44.8032C56.9745 44.6796 56.9466 44.5578 56.8956 44.4451C56.8446 44.3324 56.7714 44.2311 56.6806 44.1472C56.5897 44.0632 56.483 43.9984 56.3666 43.9564C56.2502 43.9145 56.1266 43.8963 56.0031 43.903Z" fill="#802064"/>
<path d="M45.4699 54.105C45.2242 54.0887 44.982 54.1696 44.7954 54.3303C44.6088 54.491 44.4929 54.7185 44.4726 54.9639C44.4522 55.2093 44.5292 55.4529 44.6868 55.642C44.8444 55.8312 45.0701 55.9509 45.3151 55.9752L48.9432 56.2748C49.1884 56.2903 49.4299 56.2089 49.6158 56.0483C49.8017 55.8876 49.9172 55.6605 49.9375 55.4156C49.9578 55.1707 49.8812 54.9277 49.7242 54.7387C49.5673 54.5496 49.3424 54.4297 49.098 54.4046L45.4699 54.105Z" fill="#802064"/>
<path d="M51.3247 51.9323C51.4982 52.1064 51.733 52.2056 51.9788 52.2084C52.2245 52.2113 52.4616 52.1176 52.6391 51.9476C52.8165 51.7776 52.9202 51.5447 52.9279 51.2991C52.9355 51.0534 52.8465 50.8146 52.6799 50.6338L50.5023 48.36C50.33 48.1809 50.0937 48.0775 49.8452 48.0725C49.5967 48.0674 49.3564 48.1611 49.1769 48.3331C48.9975 48.505 48.8935 48.7411 48.8879 48.9896C48.8823 49.238 48.9755 49.4786 49.1471 49.6584L51.3247 51.9323Z" fill="#802064"/>
<path d="M38.8822 57.6226C36.5124 57.6256 34.2407 58.5689 32.5658 60.2455C30.891 61.9221 29.95 64.1949 29.9495 66.5647C30.4392 78.4207 47.3389 78.4074 47.8245 66.5647C47.8234 64.1934 46.8809 61.9195 45.2042 60.2428C43.5274 58.566 41.2535 57.6236 38.8822 57.6226ZM40.6745 64.8289V68.432C40.6982 69.1792 40.4254 69.9054 39.9156 70.4522C39.4057 70.9989 38.7003 71.3217 37.9533 71.3502H37.1464C36.5187 71.3108 35.9296 71.0336 35.499 70.5751C35.0684 70.1167 34.8288 69.5114 34.8288 68.8824C34.8288 68.2535 35.0684 67.6481 35.499 67.1897C35.9296 66.7312 36.5187 66.4541 37.1464 66.4146C37.3999 66.4137 37.6441 66.5108 37.8277 66.6856C38.0113 66.8605 38.1202 67.0996 38.1316 67.3529C38.1362 67.4742 38.1164 67.5952 38.0732 67.7087C38.0301 67.8222 37.9645 67.9258 37.8805 68.0134C37.7964 68.1009 37.6955 68.1707 37.5839 68.2184C37.4723 68.2662 37.3522 68.2909 37.2308 68.2913C36.9354 68.2529 36.709 68.5206 36.7054 68.8824C36.7054 69.2015 36.9024 69.4736 37.1464 69.4736H37.9533C38.2023 69.4448 38.4301 69.3197 38.588 69.125C38.7458 68.9304 38.8212 68.6816 38.7978 68.432V62.7082C38.8022 62.5266 38.8589 62.35 38.9609 62.1996C39.063 62.0492 39.2061 61.9314 39.3733 61.8602C39.5405 61.7889 39.7247 61.7673 39.9038 61.7979C40.083 61.8285 40.2495 61.91 40.3836 62.0327C41.2674 62.8865 42.2078 63.6796 43.1986 64.4066C43.3373 64.4168 43.4719 64.4585 43.5922 64.5284C43.7125 64.5983 43.8153 64.6946 43.8929 64.8101C43.9627 64.9117 44.0118 65.026 44.0373 65.1466C44.0628 65.2672 44.0643 65.3917 44.0416 65.5128C44.0189 65.634 43.9726 65.7495 43.9052 65.8527C43.8378 65.9559 43.7507 66.0449 43.6489 66.1143C43.1892 66.4334 42.8326 66.6774 40.6745 64.8289Z" fill="#802064"/>
<path d="M38.8823 53.7754C41.2521 53.7749 43.5249 52.8339 45.2015 51.159C46.8781 49.4842 47.8215 47.2124 47.8245 44.8426C47.349 32.9869 30.4255 32.9804 29.9495 44.8426C29.9519 47.211 30.8939 49.4816 32.5686 51.1563C34.2433 52.831 36.5139 53.7729 38.8823 53.7754ZM35.7671 44.2795H37.2215V42.7032C37.2224 41.7852 37.5875 40.905 38.2366 40.2559C38.8857 39.6068 39.7659 39.2417 40.6839 39.2408C41.653 39.2183 43.4581 39.7835 42.8045 41.0424C42.674 41.2527 42.4659 41.4031 42.2252 41.461C41.9846 41.519 41.7309 41.4798 41.5189 41.352C41.2683 41.1965 40.9788 41.1152 40.6839 41.1174C40.4755 41.1171 40.2692 41.158 40.0767 41.2376C39.8842 41.3172 39.7093 41.434 39.562 41.5813C39.4147 41.7286 39.2979 41.9035 39.2183 42.096C39.1387 42.2885 39.0978 42.4948 39.0981 42.7032V44.2795H40.8715C41.1178 44.2834 41.3527 44.384 41.5254 44.5595C41.6982 44.7351 41.7951 44.9715 41.7951 45.2179C41.7951 45.4642 41.6982 45.7006 41.5254 45.8762C41.3527 46.0517 41.1178 46.1523 40.8715 46.1562H39.0981V49.506C39.0985 49.6294 39.0745 49.7518 39.0275 49.866C38.9806 49.9801 38.9115 50.0839 38.8243 50.1714C38.7372 50.2588 38.6336 50.3282 38.5196 50.3755C38.4055 50.4229 38.2833 50.4473 38.1598 50.4473C38.0363 50.4473 37.9141 50.4229 37.8 50.3755C37.686 50.3282 37.5824 50.2588 37.4952 50.1714C37.4081 50.0839 37.339 49.9801 37.292 49.866C37.2451 49.7518 37.2211 49.6294 37.2215 49.506V46.1562H35.7671C35.5208 46.1523 35.2859 46.0517 35.1131 45.8762C34.9403 45.7006 34.8435 45.4642 34.8435 45.2179C34.8435 44.9715 34.9403 44.7351 35.1131 44.5595C35.2859 44.384 35.5208 44.2834 35.7671 44.2795Z" fill="#802064"/>
<path d="M58.512 43.3412C60.9164 43.3374 63.2212 42.38 64.9205 40.6789C66.6198 38.9778 67.5749 36.6721 67.5761 34.2676C67.0828 22.2376 49.9334 22.2506 49.4384 34.2677C49.4418 36.6731 50.3988 38.979 52.0997 40.6799C53.8006 42.3808 56.1066 43.3378 58.512 43.3412ZM53.4732 31.6497C53.4726 31.0091 53.7262 30.3945 54.1783 29.9406C54.6304 29.4868 55.244 29.2308 55.8846 29.2289H61.1299C61.7715 29.2304 62.3863 29.486 62.84 29.9396C63.2936 30.3933 63.5492 31.0082 63.5508 31.6497V36.8949C63.5488 37.5355 63.2929 38.1492 62.839 38.6013C62.3852 39.0534 61.7705 39.307 61.1299 39.3064H55.8846C55.5679 39.3065 55.2543 39.2442 54.9617 39.1231C54.6691 39.0019 54.4032 38.8243 54.1793 38.6003C53.9553 38.3764 53.7777 38.1105 53.6565 37.8179C53.5354 37.5253 53.4731 37.2116 53.4732 36.8949V31.6497Z" fill="#802064"/>
<path d="M55.8846 37.4297H61.1298C61.2008 37.4307 61.2712 37.4177 61.3371 37.3912C61.403 37.3648 61.4629 37.3256 61.5136 37.2759C61.5642 37.2262 61.6044 37.1669 61.632 37.1015C61.6595 37.0361 61.6738 36.9659 61.6741 36.8949V31.6497C61.674 31.5054 61.6166 31.367 61.5145 31.265C61.4125 31.163 61.2741 31.1056 61.1298 31.1055H55.8846C55.8136 31.1057 55.7434 31.12 55.678 31.1476C55.6126 31.1751 55.5534 31.2154 55.5036 31.266C55.4539 31.3166 55.4147 31.3766 55.3883 31.4424C55.3619 31.5083 55.3488 31.5788 55.3498 31.6497V36.8949C55.349 36.9654 55.3622 37.0353 55.3888 37.1005C55.4154 37.1658 55.4548 37.2251 55.5046 37.2749C55.5544 37.3247 55.6137 37.3641 55.679 37.3907C55.7442 37.4173 55.8141 37.4306 55.8846 37.4297ZM58.5119 31.6966C59.1893 31.7054 59.8359 31.9806 60.3118 32.4627C60.7876 32.9448 61.0545 33.5949 61.0545 34.2723C61.0544 34.9497 60.7876 35.5999 60.3117 36.082C59.8358 36.564 59.1892 36.8392 58.5118 36.848C57.8345 36.8392 57.1879 36.564 56.712 36.0819C56.2361 35.5998 55.9693 34.9497 55.9693 34.2723C55.9693 33.5949 56.2362 32.9447 56.7121 32.4627C57.188 31.9806 57.8346 31.7054 58.5119 31.6966Z" fill="#802064"/>
<path d="M58.512 34.9713C58.6942 34.9666 58.8673 34.8908 58.9945 34.7602C59.1218 34.6296 59.1929 34.4546 59.1929 34.2723C59.1929 34.09 59.1217 33.9149 58.9945 33.7843C58.8673 33.6537 58.6941 33.578 58.5119 33.5732C58.3297 33.578 58.1565 33.6538 58.0293 33.7843C57.9021 33.9149 57.8309 34.09 57.8309 34.2723C57.8309 34.4546 57.9021 34.6297 58.0293 34.7603C58.1566 34.8908 58.3297 34.9666 58.512 34.9713Z" fill="#802064"/>
</svg>
