<svg width="195" height="103" viewBox="0 0 195 103" fill="none" xmlns="http://www.w3.org/2000/svg">
<g clip-path="url(#clip0_1_1248)">
<path d="M88.91 36.17C85.68 41.77 79.7 45.22 73.24 45.22H60.73C57.78 45.22 55.06 46.79 53.58 49.35L49 57.28H92.54C96.34 57.28 98.72 53.16 96.82 49.87L94.13 45.22L88.91 36.17Z" fill="#F68B29"/>
<path d="M107.55 3.88L95.87 24.11L108.05 45.22C112.36 52.68 120.32 57.28 128.94 57.28H146.33L115.51 3.88C113.74 0.819999 109.32 0.819999 107.56 3.88" fill="#802064"/>
<path d="M88.9 36.17L95.86 24.11L88.9 12.06L81.94 0L77.8 7.17C76.06 10.19 76.06 13.91 77.8 16.94L81.94 24.11L88.9 36.16V36.17Z" fill="#D8186A"/>
<path d="M37.7901 92.55C37.9901 91.93 38.1001 91.23 38.1001 90.45V89.87C38.1001 89.8 38.1001 89.74 38.0801 89.67V80.95H35.6701C35.2501 80.99 34.8701 81.1 34.5501 81.28C34.2201 81.46 33.9601 81.69 33.7401 81.98C33.5301 82.27 33.3701 82.59 33.2601 82.97C33.1501 83.34 33.1101 83.73 33.1201 84.14V90.39H23.6101V80.96H10.9901C9.45005 81.07 8.59005 81.96 8.42005 83.65V90.4H0.33005V92.93C0.24005 94.58 0.93005 95.39 2.42005 95.38H34.0601C34.6301 95.39 35.16 95.29 35.6501 95.07C36.1401 94.85 36.5601 94.53 36.9201 94.11C37.2801 93.69 37.5601 93.17 37.7701 92.56L37.7901 92.55ZM18.59 90.39H13.3901V88.3C13.3901 86.94 14.4901 85.84 15.8501 85.84H18.58V90.4L18.59 90.39Z" fill="#3C4858"/>
<path d="M116.76 72.36C116.35 72.81 116.1 73.46 115.99 74.29V90.39H110.04V71.62H107.59C106.17 71.7 105.33 72.59 105.06 74.29V90.39H97.91V80.96H95.48C94.5 81.2 93.81 81.6 93.42 82.15C93.03 82.71 92.87 83.36 92.95 84.1V90.39H86.26V80.96H83.81C83.4 80.96 83.03 81.04 82.7 81.19C82.37 81.34 82.09 81.56 81.87 81.84C81.65 82.12 81.49 82.45 81.38 82.85C81.27 83.24 81.24 83.68 81.28 84.15V90.4H76.4V80.97H73.97C73.11 81.05 72.45 81.37 72 81.94C71.55 82.51 71.36 83.23 71.44 84.11V90.4H66.56V80.97H64.11C63.67 80.97 63.28 81.05 62.94 81.22C62.6 81.39 62.32 81.61 62.1 81.89C61.88 82.17 61.73 82.5 61.64 82.89C61.55 83.28 61.54 83.69 61.59 84.12V90.41H55.98V80.98H43.36C41.87 81.07 41.01 81.97 40.77 83.67C40.77 85.24 40.77 86.78 40.77 88.31C40.77 89.84 40.78 91.38 40.78 92.95C40.66 94.61 41.36 95.42 42.87 95.4H51.13C50.97 96.22 50.71 96.97 50.35 97.65C49.99 98.33 49.57 98.95 49.09 99.53C48.61 100.11 48.07 100.64 47.48 101.14C46.89 101.64 46.28 102.11 45.66 102.56H48.83C51.2 102.56 53.4 101.34 54.65 99.32L54.67 99.29C55.39 98.13 55.86 96.83 56.1 95.4H116.86C117.46 95.43 118 95.31 118.5 95.06C119 94.81 119.43 94.44 119.78 93.95C120.14 93.46 120.41 92.86 120.61 92.14C120.8 91.42 120.89 90.61 120.88 89.71V71.66H118.43C117.67 71.7 117.09 71.94 116.69 72.4L116.76 72.36ZM51.07 90.39H45.86V88.3C45.86 86.94 46.96 85.84 48.32 85.84H51.07V90.4V90.39Z" fill="#3C4858"/>
<path d="M132.37 82.75C132.36 83.35 132.41 83.84 132.52 84.22C132.63 84.6 132.8 84.92 133.01 85.15C133.22 85.39 133.48 85.56 133.78 85.66C134.08 85.76 134.4 85.82 134.74 85.83H142.42V90.39L132.25 90.41C132.25 90.73 132.25 91.04 132.25 91.36C132.25 91.67 132.24 91.99 132.24 92.31C132.2 92.73 132.24 93.13 132.36 93.5C132.48 93.87 132.66 94.2 132.9 94.48C133.14 94.76 133.42 94.98 133.76 95.14C134.09 95.3 134.45 95.38 134.84 95.38H143.95C144.52 95.38 145.01 95.3 145.43 95.15C145.85 95 146.2 94.78 146.48 94.5C146.77 94.22 146.99 93.89 147.14 93.51C147.29 93.13 147.39 92.71 147.43 92.26V80.98H132.38V82.77L132.37 82.75Z" fill="#3C4858"/>
<path d="M194.98 91.17L194.96 80.96H181.82C181.26 80.96 180.73 81.01 180.22 81.1C179.71 81.19 179.2 81.4 178.69 81.71C178.18 82.02 177.66 82.47 177.13 83.06C176.6 83.65 176.04 84.44 175.44 85.44V71.63H173.01C171.51 71.74 170.66 72.62 170.44 74.3V90.4H165.03V80.97H152.41C150.92 81.06 150.06 81.96 149.82 83.66C149.82 85.23 149.82 86.77 149.83 88.3C149.83 89.83 149.84 91.37 149.84 92.94C149.72 94.6 150.42 95.41 151.93 95.39H160.19C160.03 96.21 159.77 96.96 159.41 97.64C159.05 98.32 158.63 98.94 158.15 99.52C157.66 100.1 157.13 100.63 156.54 101.13C155.95 101.63 155.34 102.1 154.72 102.55H157.68C160.11 102.55 162.43 101.37 163.71 99.31C163.71 99.3 163.72 99.29 163.73 99.28C164.45 98.12 164.92 96.82 165.16 95.39H191.45C192.7 95.29 193.62 94.89 194.22 94.2C194.82 93.51 195.07 92.51 194.98 91.19V91.17ZM160.08 90.39H154.87V88.3C154.87 86.94 155.97 85.84 157.33 85.84H160.08V90.4V90.39ZM190.01 90.39H175.04C175.5 89.37 176.01 88.55 176.57 87.94C177.13 87.33 177.7 86.87 178.29 86.55C178.88 86.23 179.47 86.03 180.07 85.94C180.67 85.85 181.24 85.82 181.78 85.83H190V90.39H190.01Z" fill="#3C4858"/>
<path d="M16.1001 73.62H12.8801C11.6701 73.62 10.7001 74.6 10.7001 75.8V79.02H16.1001V73.62Z" fill="#3C4858"/>
<path d="M22.82 73.62H19.6C18.39 73.62 17.42 74.6 17.42 75.8V79.02H22.82V73.62Z" fill="#3C4858"/>
<path d="M95.2501 73.62H92.0301C90.8201 73.62 89.8501 74.6 89.8501 75.8V79.02H95.2501V73.62Z" fill="#3C4858"/>
<path d="M101.97 73.62H98.7501C97.5401 73.62 96.5701 74.6 96.5701 75.8V79.02H101.97V73.62Z" fill="#3C4858"/>
<path d="M29.13 99.47V102.69H34.53V97.29H31.31C30.11 97.29 29.13 98.27 29.13 99.47Z" fill="#3C4858"/>
<path d="M35.8501 99.47V102.69H41.2501V97.29H38.0301C36.8301 97.29 35.8501 98.27 35.8501 99.47Z" fill="#3C4858"/>
</g>
<defs>
<clipPath id="clip0_1_1248">
<rect width="194.67" height="102.68" fill="white" transform="translate(0.330078)"/>
</clipPath>
</defs>
</svg>
